<svg class="main-svg" xmlns="http://www.w3.org/2000/svg" xmlns:xlink="http://www.w3.org/1999/xlink" width="1000" height="600" style="" viewBox="0 0 1000 600"><rect x="0" y="0" width="1000" height="600" style="fill: rgb(23, 23, 23); fill-opacity: 1;"/><defs id="defs-b8fac5"><g class="clips"><clipPath id="clipb8fac5xyplot" class="plotclip"><rect width="833" height="420"/></clipPath><clipPath class="axesclip" id="clipb8fac5x"><rect x="87" y="0" width="833" height="600"/></clipPath><clipPath class="axesclip" id="clipb8fac5y"><rect x="0" y="100" width="1000" height="420"/></clipPath><clipPath class="axesclip" id="clipb8fac5xy"><rect x="87" y="100" width="833" height="420"/></clipPath></g><g class="gradients"/><g class="patterns"/></defs><g class="bglayer"/><g class="layer-below"><g class="imagelayer"/><g class="shapelayer"/></g><g class="cartesianlayer"><g class="subplot xy"><g class="layer-subplot"><g class="shapelayer"/><g class="imagelayer"/></g><g class="minor-gridlayer"><g class="x"/><g class="y"/></g><g class="gridlayer"><g class="x"/><g class="y"><path class="ygrid crisp" transform="translate(0,471.18)" d="M87,0h833" style="stroke: rgb(40, 52, 66); stroke-opacity: 1; stroke-width: 1px;"/><path class="ygrid crisp" transform="translate(0,422.35)" d="M87,0h833" style="stroke: rgb(40, 52, 66); stroke-opacity: 1; stroke-width: 1px;"/><path class="ygrid crisp" transform="translate(0,373.53)" d="M87,0h833" style="stroke: rgb(40, 52, 66); stroke-opacity: 1; stroke-width: 1px;"/><path class="ygrid crisp" transform="translate(0,324.71000000000004)" d="M87,0h833" style="stroke: rgb(40, 52, 66); stroke-opacity: 1; stroke-width: 1px;"/><path class="ygrid crisp" transform="translate(0,275.88)" d="M87,0h833" style="stroke: rgb(40, 52, 66); stroke-opacity: 1; stroke-width: 1px;"/><path class="ygrid crisp" transform="translate(0,227.06)" d="M87,0h833" style="stroke: rgb(40, 52, 66); stroke-opacity: 1; stroke-width: 1px;"/><path class="ygrid crisp" transform="translate(0,178.24)" d="M87,0h833" style="stroke: rgb(40, 52, 66); stroke-opacity: 1; stroke-width: 1px;"/><path class="ygrid crisp" transform="translate(0,129.41)" d="M87,0h833" style="stroke: rgb(40, 52, 66); stroke-opacity: 1; stroke-width: 1px;"/></g></g><g class="zerolinelayer"><path class="yzl zl crisp" transform="translate(0,520)" d="M87,0h833" style="stroke: rgb(40, 52, 66); stroke-opacity: 1; stroke-width: 2px;"/></g><g class="layer-between"><g class="shapelayer"/><g class="imagelayer"/></g><path class="xlines-below"/><path class="ylines-below"/><g class="overlines-below"/><g class="xaxislayer-below"/><g class="yaxislayer-below"/><g class="overaxes-below"/><g class="overplot"><g class="xy" transform="translate(87,100)" clip-path="url(#clipb8fac5xyplot)"><g class="scatterlayer mlayer"><g class="trace scatter tracef36170" style="stroke-miterlimit: 2;"><g class="fills"><g><path class="js-fill" d="M833,420L0,420L0,398.18L24.5,397.97L49,396.5L73.5,395.19L98,395.05L220.5,394.31L245,392.61L269.5,390.64L294,389.82L343,384.12L367.5,382.25L465.5,379.6L490,377.66L514.5,375.57L539,377.41L588,380.18L612.5,380.73L637,381.2L661.5,380.1L735,372.74L759.5,371.8L784,368.7L808.5,369.73L833,369.35" style="fill: rgb(124, 124, 124); fill-opacity: 0.5; stroke-width: 0;"/></g><g><path class="js-fill" d="M0,378.71L24.5,377.62L49,375.77L73.5,374.29L98,373.65L147,373.9L171.5,373.08L220.5,372.21L245,370.41L294,366.22L343,358.29L392,353.79L416.5,352.55L465.5,348.5L490,345.41L514.5,342.05L539,342.93L612.5,345.2L637,345.98L661.5,344.1L686,341.08L710.5,337.53L735,335.2L759.5,333.9L784,329.93L808.5,331.33L833,331.73L833,369.35L808.5,369.73L784,368.7L759.5,371.8L735,372.74L661.5,380.1L637,381.2L612.5,380.73L588,380.18L539,377.41L514.5,375.57L490,377.66L465.5,379.6L367.5,382.25L343,384.12L294,389.82L269.5,390.64L245,392.61L220.5,394.31L98,395.05L73.5,395.19L49,396.5L24.5,397.97L0,398.18Z" style="fill: rgb(140, 120, 93); fill-opacity: 0.5; stroke-width: 0;"/></g></g><g class="errorbars"/><g class="lines"><path class="js-line" d="M0,398.18L24.5,397.97L49,396.5L73.5,395.19L98,395.05L220.5,394.31L245,392.61L269.5,390.64L294,389.82L343,384.12L367.5,382.25L465.5,379.6L490,377.66L514.5,375.57L539,377.41L588,380.18L612.5,380.73L637,381.2L661.5,380.1L735,372.74L759.5,371.8L784,368.7L808.5,369.73L833,369.35" style="vector-effect: none; fill: none; stroke: rgb(124, 124, 124); stroke-opacity: 1; stroke-width: 2px; opacity: 1;"/></g><g class="points"/><g class="text"/></g><g class="trace scatter trace45f2ca" style="stroke-miterlimit: 2;"><g class="fills"><g><path class="js-fill" d="M0,365.3L24.5,363.96L49,361.53L73.5,359.55L98,358.63L147,358.44L171.5,356.98L220.5,354.54L245,351.94L294,346.54L343,336.09L392,329.4L416.5,328.09L441,325.97L465.5,322.91L514.5,313.88L539,314.09L563.5,314.04L588,314.86L612.5,317.39L637,318.07L661.5,315.13L686,310.53L710.5,306.35L735,303.74L759.5,302.42L784,298.23L833,298.12L833,331.73L808.5,331.33L784,329.93L759.5,333.9L735,335.2L710.5,337.53L686,341.08L661.5,344.1L637,345.98L612.5,345.2L539,342.93L514.5,342.05L490,345.41L465.5,348.5L416.5,352.55L392,353.79L343,358.29L294,366.22L245,370.41L220.5,372.21L171.5,373.08L147,373.9L98,373.65L73.5,374.29L49,375.77L24.5,377.62L0,378.71Z" style="fill: rgb(160, 97, 119); fill-opacity: 0.5; stroke-width: 0;"/></g></g><g class="errorbars"/><g class="lines"><path class="js-line" d="M0,378.71L24.5,377.62L49,375.77L73.5,374.29L98,373.65L147,373.9L171.5,373.08L220.5,372.21L245,370.41L294,366.22L343,358.29L392,353.79L416.5,352.55L465.5,348.5L490,345.41L514.5,342.05L539,342.93L612.5,345.2L637,345.98L661.5,344.1L686,341.08L710.5,337.53L735,335.2L759.5,333.9L784,329.93L808.5,331.33L833,331.73" style="vector-effect: none; fill: none; stroke: rgb(140, 120, 93); stroke-opacity: 1; stroke-width: 2px; opacity: 1;"/></g><g class="points"/><g class="text"/></g><g class="trace scatter trace561c4a" style="stroke-miterlimit: 2;"><g class="fills"><g><path class="js-fill" d="M0,356.75L24.5,355.19L49,352.27L73.5,350.17L98,348.83L147,348.28L171.5,346.97L220.5,344.46L245,341.2L294,334.6L343,323.02L392,315.55L416.5,313.82L441,311.56L465.5,308.36L490,303.75L514.5,298.1L563.5,296.72L588,297.86L612.5,300.45L637,300.91L661.5,297.3L686,292.19L735,284.35L759.5,283.19L784,279.18L808.5,278.46L833,278.38L833,298.12L784,298.23L759.5,302.42L735,303.74L710.5,306.35L686,310.53L661.5,315.13L637,318.07L612.5,317.39L588,314.86L563.5,314.04L539,314.09L514.5,313.88L465.5,322.91L441,325.97L416.5,328.09L392,329.4L343,336.09L294,346.54L245,351.94L220.5,354.54L171.5,356.98L147,358.44L98,358.63L73.5,359.55L49,361.53L24.5,363.96L0,365.3Z" style="fill: rgb(156, 156, 94); fill-opacity: 0.5; stroke-width: 0;"/></g></g><g class="errorbars"/><g class="lines"><path class="js-line" d="M0,365.3L24.5,363.96L49,361.53L73.5,359.55L98,358.63L147,358.44L171.5,356.98L220.5,354.54L245,351.94L294,346.54L343,336.09L392,329.4L416.5,328.09L441,325.97L465.5,322.91L514.5,313.88L539,314.09L563.5,314.04L588,314.86L612.5,317.39L637,318.07L661.5,315.13L686,310.53L710.5,306.35L735,303.74L759.5,302.42L784,298.23L833,298.12" style="vector-effect: none; fill: none; stroke: rgb(160, 97, 119); stroke-opacity: 1; stroke-width: 2px; opacity: 1;"/></g><g class="points"/><g class="text"/></g><g class="trace scatter tracee419bd" style="stroke-miterlimit: 2;"><g class="fills"><g><path class="js-fill" d="M0,348.69L24.5,346.81L49,343.42L73.5,340.79L98,339.07L147,338.15L171.5,336.58L220.5,333.93L245,330.42L294,323.3L343,310.66L367.5,306.61L392,301.76L441,296.36L465.5,292.58L490,287.18L514.5,280.52L539,280.81L563.5,279.71L612.5,283.93L637,284L661.5,280.48L686,275.24L735,267.32L759.5,265.92L784,261.52L808.5,260.92L833,260.66L833,278.38L808.5,278.46L784,279.18L759.5,283.19L735,284.35L686,292.19L661.5,297.3L637,300.91L612.5,300.45L588,297.86L563.5,296.72L514.5,298.1L490,303.75L465.5,308.36L441,311.56L416.5,313.82L392,315.55L343,323.02L294,334.6L245,341.2L220.5,344.46L171.5,346.97L147,348.28L98,348.83L73.5,350.17L49,352.27L24.5,355.19L0,356.75Z" style="fill: rgb(104, 133, 92); fill-opacity: 0.5; stroke-width: 0;"/></g></g><g class="errorbars"/><g class="lines"><path class="js-line" d="M0,356.75L24.5,355.19L49,352.27L73.5,350.17L98,348.83L147,348.28L171.5,346.97L220.5,344.46L245,341.2L294,334.6L343,323.02L392,315.55L416.5,313.82L441,311.56L465.5,308.36L490,303.75L514.5,298.1L563.5,296.72L588,297.86L612.5,300.45L637,300.91L661.5,297.3L686,292.19L735,284.35L759.5,283.19L784,279.18L808.5,278.46L833,278.38" style="vector-effect: none; fill: none; stroke: rgb(156, 156, 94); stroke-opacity: 1; stroke-width: 2px; opacity: 1;"/></g><g class="points"/><g class="text"/></g><g class="trace scatter trace2f2335" style="stroke-miterlimit: 2;"><g class="fills"><g><path class="js-fill" d="M0,339.21L24.5,337.09L49,333.04L73.5,329.82L98,328.01L147,326.97L171.5,325.41L220.5,322.3L245,318.68L294,311.42L343,298.2L367.5,293.92L392,288.65L441,281.9L465.5,277.74L490,272.12L514.5,265.25L539,265.34L563.5,263.77L588,265.24L612.5,268.22L637,268.23L661.5,264.62L686,259.1L710.5,254.71L735,250.51L759.5,248.84L784,244.23L808.5,243.63L833,243.46L833,260.66L808.5,260.92L784,261.52L759.5,265.92L735,267.32L686,275.24L661.5,280.48L637,284L612.5,283.93L563.5,279.71L539,280.81L514.5,280.52L490,287.18L465.5,292.58L441,296.36L392,301.76L367.5,306.61L343,310.66L294,323.3L245,330.42L220.5,333.93L171.5,336.58L147,338.15L98,339.07L73.5,340.79L49,343.42L24.5,346.81L0,348.69Z" style="fill: rgb(98, 83, 119); fill-opacity: 0.5; stroke-width: 0;"/></g></g><g class="errorbars"/><g class="lines"><path class="js-line" d="M0,348.69L24.5,346.81L49,343.42L73.5,340.79L98,339.07L147,338.15L171.5,336.58L220.5,333.93L245,330.42L294,323.3L343,310.66L367.5,306.61L392,301.76L441,296.36L465.5,292.58L490,287.18L514.5,280.52L539,280.81L563.5,279.71L612.5,283.93L637,284L661.5,280.48L686,275.24L735,267.32L759.5,265.92L784,261.52L808.5,260.92L833,260.66" style="vector-effect: none; fill: none; stroke: rgb(104, 133, 92); stroke-opacity: 1; stroke-width: 2px; opacity: 1;"/></g><g class="points"/><g class="text"/></g><g class="trace scatter trace6d6349" style="stroke-miterlimit: 2;"><g class="fills"><g><path class="js-fill" d="M0,331.74L24.5,329.13L49,324.27L73.5,320.32L98,318.09L147,317.1L171.5,315.14L220.5,311.51L245,307.67L294,299.54L343,285.64L367.5,281.25L392,275.53L441,267.19L465.5,261.94L514.5,247.77L539,248.8L563.5,247.4L588,248.72L612.5,252.83L637,252.78L661.5,248.7L686,242.96L735,234.24L759.5,232.32L784,227.42L808.5,226.52L833,226.35L833,243.46L808.5,243.63L784,244.23L759.5,248.84L735,250.51L710.5,254.71L686,259.1L661.5,264.62L637,268.23L612.5,268.22L588,265.24L563.5,263.77L539,265.34L514.5,265.25L490,272.12L465.5,277.74L441,281.9L392,288.65L367.5,293.92L343,298.2L294,311.42L245,318.68L220.5,322.3L171.5,325.41L147,326.97L98,328.01L73.5,329.82L49,333.04L24.5,337.09L0,339.21Z" style="fill: rgb(82, 106, 131); fill-opacity: 0.5; stroke-width: 0;"/></g></g><g class="errorbars"/><g class="lines"><path class="js-line" d="M0,339.21L24.5,337.09L49,333.04L73.5,329.82L98,328.01L147,326.97L171.5,325.41L220.5,322.3L245,318.68L294,311.42L343,298.2L367.5,293.92L392,288.65L441,281.9L465.5,277.74L490,272.12L514.5,265.25L539,265.34L563.5,263.77L588,265.24L612.5,268.22L637,268.23L661.5,264.62L686,259.1L710.5,254.71L735,250.51L759.5,248.84L784,244.23L808.5,243.63L833,243.46" style="vector-effect: none; fill: none; stroke: rgb(98, 83, 119); stroke-opacity: 1; stroke-width: 2px; opacity: 1;"/></g><g class="points"/><g class="text"/></g><g class="trace scatter trace5cf9bc" style="stroke-miterlimit: 2;"><g class="fills"><g><path class="js-fill" d="M0,323.66L24.5,320.96L49,315.21L73.5,311.09L98,308.87L147,307.72L171.5,305.59L220.5,301.73L245,297.64L294,288.88L343,274.02L367.5,269.2L392,262.8L441,253.93L465.5,248.46L490,241.75L514.5,234.14L539,235.05L563.5,233.51L588,234.88L612.5,239.48L637,239.81L661.5,235.81L686,229.95L710.5,225.72L735,220.99L759.5,219.05L784,213.95L808.5,213.05L833,212.95L833,226.35L808.5,226.52L784,227.42L759.5,232.32L735,234.24L686,242.96L661.5,248.7L637,252.78L612.5,252.83L588,248.72L563.5,247.4L539,248.8L514.5,247.77L465.5,261.94L441,267.19L392,275.53L367.5,281.25L343,285.64L294,299.54L245,307.67L220.5,311.51L171.5,315.14L147,317.1L98,318.09L73.5,320.32L49,324.27L24.5,329.13L0,331.74Z" style="fill: rgb(115, 111, 76); fill-opacity: 0.5; stroke-width: 0;"/></g></g><g class="errorbars"/><g class="lines"><path class="js-line" d="M0,331.74L24.5,329.13L49,324.27L73.5,320.32L98,318.09L147,317.1L171.5,315.14L220.5,311.51L245,307.67L294,299.54L343,285.64L367.5,281.25L392,275.53L441,267.19L465.5,261.94L514.5,247.77L539,248.8L563.5,247.4L588,248.72L612.5,252.83L637,252.78L661.5,248.7L686,242.96L735,234.24L759.5,232.32L784,227.42L808.5,226.52L833,226.35" style="vector-effect: none; fill: none; stroke: rgb(82, 106, 131); stroke-opacity: 1; stroke-width: 2px; opacity: 1;"/></g><g class="points"/><g class="text"/></g><g class="trace scatter trace5c81d3" style="stroke-miterlimit: 2;"><g class="fills"><g><path class="js-fill" d="M0,315.16L24.5,312.21L49,306.14L73.5,301.82L98,299.49L147,297.98L171.5,295.83L220.5,291.27L245,286.94L269.5,282.81L294,277.66L343,262.11L367.5,256.98L392,250.22L416.5,245.66L441,241.29L465.5,235.85L514.5,221.83L539,222.85L563.5,221.43L588,223.27L612.5,228.32L637,228.92L661.5,225.03L686,219.13L735,210.38L759.5,208.35L784,203.23L808.5,202.34L833,202.11L833,212.95L808.5,213.05L784,213.95L759.5,219.05L735,220.99L710.5,225.72L686,229.95L661.5,235.81L637,239.81L612.5,239.48L588,234.88L563.5,233.51L539,235.05L514.5,234.14L490,241.75L465.5,248.46L441,253.93L392,262.8L367.5,269.2L343,274.02L294,288.88L245,297.64L220.5,301.73L171.5,305.59L147,307.72L98,308.87L73.5,311.09L49,315.21L24.5,320.96L0,323.66Z" style="fill: rgb(175, 100, 88); fill-opacity: 0.5; stroke-width: 0;"/></g></g><g class="errorbars"/><g class="lines"><path class="js-line" d="M0,323.66L24.5,320.96L49,315.21L73.5,311.09L98,308.87L147,307.72L171.5,305.59L220.5,301.73L245,297.64L294,288.88L343,274.02L367.5,269.2L392,262.8L441,253.93L465.5,248.46L490,241.75L514.5,234.14L539,235.05L563.5,233.51L588,234.88L612.5,239.48L637,239.81L661.5,235.81L686,229.95L710.5,225.72L735,220.99L759.5,219.05L784,213.95L808.5,213.05L833,212.95" style="vector-effect: none; fill: none; stroke: rgb(115, 111, 76); stroke-opacity: 1; stroke-width: 2px; opacity: 1;"/></g><g class="points"/><g class="text"/></g><g class="trace scatter trace565cc4" style="stroke-miterlimit: 2;"><g class="fills"><g><path class="js-fill" d="M0,310.86L24.5,307.72L49,301.29L73.5,296.62L98,294.23L147,292.59L171.5,290.22L220.5,285.04L245,280.32L269.5,275.85L294,270.17L343,253.74L367.5,248.12L392,240.89L416.5,236.35L441,231.61L465.5,225.47L514.5,210.26L539,211.52L563.5,210.4L588,212.52L612.5,217.74L637,218.59L661.5,214.63L686,208.5L735,199.21L759.5,196.86L784,191.52L808.5,190.33L833,190.25L833,202.11L808.5,202.34L784,203.23L759.5,208.35L735,210.38L686,219.13L661.5,225.03L637,228.92L612.5,228.32L588,223.27L563.5,221.43L539,222.85L514.5,221.83L465.5,235.85L441,241.29L416.5,245.66L392,250.22L367.5,256.98L343,262.11L294,277.66L269.5,282.81L245,286.94L220.5,291.27L171.5,295.83L147,297.98L98,299.49L73.5,301.82L49,306.14L24.5,312.21L0,315.16Z" style="fill: rgb(217, 175, 107); fill-opacity: 0.5; stroke-width: 0;"/></g></g><g class="errorbars"/><g class="lines"><path class="js-line" d="M0,315.16L24.5,312.21L49,306.14L73.5,301.82L98,299.49L147,297.98L171.5,295.83L220.5,291.27L245,286.94L269.5,282.81L294,277.66L343,262.11L367.5,256.98L392,250.22L416.5,245.66L441,241.29L465.5,235.85L514.5,221.83L539,222.85L563.5,221.43L588,223.27L612.5,228.32L637,228.92L661.5,225.03L686,219.13L735,210.38L759.5,208.35L784,203.23L808.5,202.34L833,202.11" style="vector-effect: none; fill: none; stroke: rgb(175, 100, 88); stroke-opacity: 1; stroke-width: 2px; opacity: 1;"/></g><g class="points"/><g class="text"/></g><g class="trace scatter trace0f69ff" style="stroke-miterlimit: 2;"><g class="fills"><g><path class="js-fill" d="M0,305.91L24.5,302.53L49,295.83L73.5,291.12L98,288.84L147,287.2L171.5,284.62L220.5,278.99L245,274.05L269.5,269.23L294,263.19L343,245.98L367.5,240L392,232.65L416.5,227.82L441,222.84L465.5,216.59L490,209.1L514.5,200.75L539,201.64L563.5,200.54L588,203.07L612.5,208.15L637,208.86L661.5,204.71L686,198.33L710.5,193.89L735,188.67L759.5,186.18L784,180.6L808.5,179.32L833,179.01L833,190.25L808.5,190.33L784,191.52L759.5,196.86L735,199.21L686,208.5L661.5,214.63L637,218.59L612.5,217.74L588,212.52L563.5,210.4L539,211.52L514.5,210.26L465.5,225.47L441,231.61L416.5,236.35L392,240.89L367.5,248.12L343,253.74L294,270.17L269.5,275.85L245,280.32L220.5,285.04L171.5,290.22L147,292.59L98,294.23L73.5,296.62L49,301.29L24.5,307.72L0,310.86Z" style="fill: rgb(133, 92, 117); fill-opacity: 0.5; stroke-width: 0;"/></g></g><g class="errorbars"/><g class="lines"><path class="js-line" d="M0,310.86L24.5,307.72L49,301.29L73.5,296.62L98,294.23L147,292.59L171.5,290.22L220.5,285.04L245,280.32L269.5,275.85L294,270.17L343,253.74L367.5,248.12L392,240.89L416.5,236.35L441,231.61L465.5,225.47L514.5,210.26L539,211.52L563.5,210.4L588,212.52L612.5,217.74L637,218.59L661.5,214.63L686,208.5L735,199.21L759.5,196.86L784,191.52L808.5,190.33L833,190.25" style="vector-effect: none; fill: none; stroke: rgb(217, 175, 107); stroke-opacity: 1; stroke-width: 2px; opacity: 1;"/></g><g class="points"/><g class="text"/></g><g class="trace scatter traceb9e4c0" style="stroke-miterlimit: 2;"><g class="fills"><g><path class="js-fill" d="M0,301.36L24.5,297.73L49,290.8L73.5,285.78L98,283.41L147,281.85L171.5,279.21L220.5,273.38L245,268.24L269.5,263.19L294,256.93L343,239.01L367.5,232.89L392,225.26L416.5,220.09L441,214.57L465.5,207.91L514.5,191.28L539,192.07L563.5,191.29L588,194.09L612.5,199.07L637,199.63L661.5,195.59L686,189.08L710.5,184.66L735,179.24L759.5,176.65L784,170.96L808.5,169.57L833,169.19L833,179.01L808.5,179.32L784,180.6L759.5,186.18L735,188.67L710.5,193.89L686,198.33L661.5,204.71L637,208.86L612.5,208.15L588,203.07L563.5,200.54L539,201.64L514.5,200.75L490,209.1L465.5,216.59L441,222.84L416.5,227.82L392,232.65L367.5,240L343,245.98L294,263.19L269.5,269.23L245,274.05L220.5,278.99L171.5,284.62L147,287.2L98,288.84L73.5,291.12L49,295.83L24.5,302.53L0,305.91Z" style="fill: rgb(124, 124, 124); fill-opacity: 0.5; stroke-width: 0;"/></g></g><g class="errorbars"/><g class="lines"><path class="js-line" d="M0,305.91L24.5,302.53L49,295.83L73.5,291.12L98,288.84L147,287.2L171.5,284.62L220.5,278.99L245,274.05L269.5,269.23L294,263.19L343,245.98L367.5,240L392,232.65L416.5,227.82L441,222.84L465.5,216.59L490,209.1L514.5,200.75L539,201.64L563.5,200.54L588,203.07L612.5,208.15L637,208.86L661.5,204.71L686,198.33L710.5,193.89L735,188.67L759.5,186.18L784,180.6L808.5,179.32L833,179.01" style="vector-effect: none; fill: none; stroke: rgb(133, 92, 117); stroke-opacity: 1; stroke-width: 2px; opacity: 1;"/></g><g class="points"/><g class="text"/></g><g class="trace scatter trace98fb3d" style="stroke-miterlimit: 2;"><g class="fills"><g><path class="js-fill" d="M0,297.14L24.5,293.39L49,286.09L73.5,280.77L98,278.36L147,276.81L171.5,274.09L220.5,268.13L245,262.77L269.5,257.37L294,250.7L343,232.15L367.5,225.92L392,218.23L416.5,212.98L441,206.97L465.5,199.99L514.5,182.99L539,183.14L563.5,182.73L588,185.56L612.5,190.74L637,191.2L661.5,187.3L686,180.59L710.5,176.19L735,170.65L759.5,167.91L784,161.97L808.5,160.59L833,160.18L833,169.19L808.5,169.57L784,170.96L759.5,176.65L735,179.24L710.5,184.66L686,189.08L661.5,195.59L637,199.63L612.5,199.07L588,194.09L563.5,191.29L539,192.07L514.5,191.28L465.5,207.91L441,214.57L416.5,220.09L392,225.26L367.5,232.89L343,239.01L294,256.93L269.5,263.19L245,268.24L220.5,273.38L171.5,279.21L147,281.85L98,283.41L73.5,285.78L49,290.8L24.5,297.73L0,301.36Z" style="fill: rgb(140, 120, 93); fill-opacity: 0.5; stroke-width: 0;"/></g></g><g class="errorbars"/><g class="lines"><path class="js-line" d="M0,301.36L24.5,297.73L49,290.8L73.5,285.78L98,283.41L147,281.85L171.5,279.21L220.5,273.38L245,268.24L269.5,263.19L294,256.93L343,239.01L367.5,232.89L392,225.26L416.5,220.09L441,214.57L465.5,207.91L514.5,191.28L539,192.07L563.5,191.29L588,194.09L612.5,199.07L637,199.63L661.5,195.59L686,189.08L710.5,184.66L735,179.24L759.5,176.65L784,170.96L808.5,169.57L833,169.19" style="vector-effect: none; fill: none; stroke: rgb(124, 124, 124); stroke-opacity: 1; stroke-width: 2px; opacity: 1;"/></g><g class="points"/><g class="text"/></g><g class="trace scatter trace724ab0" style="stroke-miterlimit: 2;"><g class="fills"><g><path class="js-fill" d="M0,293.38L24.5,289.43L49,281.85L73.5,276.27L98,273.7L147,272.16L171.5,269.34L220.5,263.14L245,257.71L269.5,252.13L294,245.28L343,226.26L367.5,219.81L392,211.86L416.5,206.51L441,200.26L465.5,192.9L514.5,174.9L539,174.92L563.5,174.4L588,177.23L612.5,182.72L637,183.15L661.5,179.25L686,172.48L710.5,168.16L735,162.49L759.5,159.74L784,153.7L808.5,152.18L833,151.75L833,160.18L808.5,160.59L784,161.97L759.5,167.91L735,170.65L710.5,176.19L686,180.59L661.5,187.3L637,191.2L612.5,190.74L588,185.56L563.5,182.73L539,183.14L514.5,182.99L465.5,199.99L441,206.97L416.5,212.98L392,218.23L367.5,225.92L343,232.15L294,250.7L269.5,257.37L245,262.77L220.5,268.13L171.5,274.09L147,276.81L98,278.36L73.5,280.77L49,286.09L24.5,293.39L0,297.14Z" style="fill: rgb(160, 97, 119); fill-opacity: 0.5; stroke-width: 0;"/></g></g><g class="errorbars"/><g class="lines"><path class="js-line" d="M0,297.14L24.5,293.39L49,286.09L73.5,280.77L98,278.36L147,276.81L171.5,274.09L220.5,268.13L245,262.77L269.5,257.37L294,250.7L343,232.15L367.5,225.92L392,218.23L416.5,212.98L441,206.97L465.5,199.99L514.5,182.99L539,183.14L563.5,182.73L588,185.56L612.5,190.74L637,191.2L661.5,187.3L686,180.59L710.5,176.19L735,170.65L759.5,167.91L784,161.97L808.5,160.59L833,160.18" style="vector-effect: none; fill: none; stroke: rgb(140, 120, 93); stroke-opacity: 1; stroke-width: 2px; opacity: 1;"/></g><g class="points"/><g class="text"/></g><g class="trace scatter traceabf9f4" style="stroke-miterlimit: 2;"><g class="fills"><g><path class="js-fill" d="M0,289.66L24.5,285.63L49,277.96L73.5,272.17L98,269.42L147,267.38L171.5,264.47L220.5,258.07L245,252.59L269.5,246.77L294,239.93L343,220.59L367.5,214.02L392,205.96L416.5,200.55L441,194.18L465.5,186.67L514.5,168.16L539,167.87L563.5,167.51L588,170.28L612.5,175.91L637,176.35L661.5,172.12L686,165.11L710.5,160.31L735,154.36L759.5,151.03L784,144.17L808.5,142.53L833,142.14L833,151.75L808.5,152.18L784,153.7L759.5,159.74L735,162.49L710.5,168.16L686,172.48L661.5,179.25L637,183.15L612.5,182.72L588,177.23L563.5,174.4L539,174.92L514.5,174.9L465.5,192.9L441,200.26L416.5,206.51L392,211.86L367.5,219.81L343,226.26L294,245.28L269.5,252.13L245,257.71L220.5,263.14L171.5,269.34L147,272.16L98,273.7L73.5,276.27L49,281.85L24.5,289.43L0,293.38Z" style="fill: rgb(156, 156, 94); fill-opacity: 0.5; stroke-width: 0;"/></g></g><g class="errorbars"/><g class="lines"><path class="js-line" d="M0,293.38L24.5,289.43L49,281.85L73.5,276.27L98,273.7L147,272.16L171.5,269.34L220.5,263.14L245,257.71L269.5,252.13L294,245.28L343,226.26L367.5,219.81L392,211.86L416.5,206.51L441,200.26L465.5,192.9L514.5,174.9L539,174.92L563.5,174.4L588,177.23L612.5,182.72L637,183.15L661.5,179.25L686,172.48L710.5,168.16L735,162.49L759.5,159.74L784,153.7L808.5,152.18L833,151.75" style="vector-effect: none; fill: none; stroke: rgb(160, 97, 119); stroke-opacity: 1; stroke-width: 2px; opacity: 1;"/></g><g class="points"/><g class="text"/></g><g class="trace scatter tracebd6a28" style="stroke-miterlimit: 2;"><g class="fills"><g><path class="js-fill" d="M0,285.56L24.5,281.41L49,273.39L73.5,267.46L98,264.62L147,262.47L171.5,259.44L220.5,252.91L245,247.05L269.5,241.18L294,234.05L343,214.28L367.5,207.73L392,199.47L416.5,193.82L465.5,179.69L490,170.58L514.5,161.47L539,161.01L563.5,160.55L588,163.58L612.5,169.15L637,169.82L661.5,165.68L686,158.71L710.5,153.93L735,148L759.5,144.65L784,137.77L808.5,135.94L833,135.46L833,142.14L808.5,142.53L784,144.17L759.5,151.03L735,154.36L710.5,160.31L686,165.11L661.5,172.12L637,176.35L612.5,175.91L588,170.28L563.5,167.51L539,167.87L514.5,168.16L465.5,186.67L441,194.18L416.5,200.55L392,205.96L367.5,214.02L343,220.59L294,239.93L269.5,246.77L245,252.59L220.5,258.07L171.5,264.47L147,267.38L98,269.42L73.5,272.17L49,277.96L24.5,285.63L0,289.66Z" style="fill: rgb(104, 133, 92); fill-opacity: 0.5; stroke-width: 0;"/></g></g><g class="errorbars"/><g class="lines"><path class="js-line" d="M0,289.66L24.5,285.63L49,277.96L73.5,272.17L98,269.42L147,267.38L171.5,264.47L220.5,258.07L245,252.59L269.5,246.77L294,239.93L343,220.59L367.5,214.02L392,205.96L416.5,200.55L441,194.18L465.5,186.67L514.5,168.16L539,167.87L563.5,167.51L588,170.28L612.5,175.91L637,176.35L661.5,172.12L686,165.11L710.5,160.31L735,154.36L759.5,151.03L784,144.17L808.5,142.53L833,142.14" style="vector-effect: none; fill: none; stroke: rgb(156, 156, 94); stroke-opacity: 1; stroke-width: 2px; opacity: 1;"/></g><g class="points"/><g class="text"/></g><g class="trace scatter trace563f92" style="stroke-miterlimit: 2;"><g class="fills"><g><path class="js-fill" d="M0,281.48L24.5,277.21L49,268.93L73.5,262.92L98,259.91L147,257.41L171.5,254.3L220.5,247.58L245,241.57L269.5,235.55L294,228.24L343,208.22L367.5,201.54L392,193.1L416.5,187.4L465.5,173.08L490,163.91L514.5,154.71L539,154.14L563.5,153.59L588,156.42L612.5,162.58L637,163.33L661.5,159.2L686,152.25L710.5,147.56L735,141.63L759.5,138.18L784,131.33L808.5,129.58L833,129.02L833,135.46L808.5,135.94L784,137.77L759.5,144.65L735,148L710.5,153.93L686,158.71L661.5,165.68L637,169.82L612.5,169.15L588,163.58L563.5,160.55L539,161.01L514.5,161.47L490,170.58L465.5,179.69L416.5,193.82L392,199.47L367.5,207.73L343,214.28L294,234.05L269.5,241.18L245,247.05L220.5,252.91L171.5,259.44L147,262.47L98,264.62L73.5,267.46L49,273.39L24.5,281.41L0,285.56Z" style="fill: rgb(98, 83, 119); fill-opacity: 0.5; stroke-width: 0;"/></g></g><g class="errorbars"/><g class="lines"><path class="js-line" d="M0,285.56L24.5,281.41L49,273.39L73.5,267.46L98,264.62L147,262.47L171.5,259.44L220.5,252.91L245,247.05L269.5,241.18L294,234.05L343,214.28L367.5,207.73L392,199.47L416.5,193.82L465.5,179.69L490,170.58L514.5,161.47L539,161.01L563.5,160.55L588,163.58L612.5,169.15L637,169.82L661.5,165.68L686,158.71L710.5,153.93L735,148L759.5,144.65L784,137.77L808.5,135.94L833,135.46" style="vector-effect: none; fill: none; stroke: rgb(104, 133, 92); stroke-opacity: 1; stroke-width: 2px; opacity: 1;"/></g><g class="points"/><g class="text"/></g><g class="trace scatter trace02a6d4" style="stroke-miterlimit: 2;"><g class="fills"><g><path class="js-fill" d="M0,277.75L24.5,273.44L49,264.95L73.5,258.91L98,255.81L147,253.18L171.5,250L220.5,243.03L245,236.91L269.5,230.67L294,223.12L343,202.75L367.5,196.16L392,187.59L416.5,181.8L441,174.98L465.5,167.26L514.5,148.63L539,147.63L563.5,147.33L588,150.23L612.5,156.45L637,157.11L661.5,152.85L686,145.68L710.5,140.84L735,134.81L759.5,131.28L784,124.33L808.5,122.58L833,122.01L833,129.02L808.5,129.58L784,131.33L759.5,138.18L735,141.63L710.5,147.56L686,152.25L661.5,159.2L637,163.33L612.5,162.58L588,156.42L563.5,153.59L539,154.14L514.5,154.71L490,163.91L465.5,173.08L416.5,187.4L392,193.1L367.5,201.54L343,208.22L294,228.24L269.5,235.55L245,241.57L220.5,247.58L171.5,254.3L147,257.41L98,259.91L73.5,262.92L49,268.93L24.5,277.21L0,281.48Z" style="fill: rgb(82, 106, 131); fill-opacity: 0.5; stroke-width: 0;"/></g></g><g class="errorbars"/><g class="lines"><path class="js-line" d="M0,281.48L24.5,277.21L49,268.93L73.5,262.92L98,259.91L147,257.41L171.5,254.3L220.5,247.58L245,241.57L269.5,235.55L294,228.24L343,208.22L367.5,201.54L392,193.1L416.5,187.4L465.5,173.08L490,163.91L514.5,154.71L539,154.14L563.5,153.59L588,156.42L612.5,162.58L637,163.33L661.5,159.2L686,152.25L710.5,147.56L735,141.63L759.5,138.18L784,131.33L808.5,129.58L833,129.02" style="vector-effect: none; fill: none; stroke: rgb(98, 83, 119); stroke-opacity: 1; stroke-width: 2px; opacity: 1;"/></g><g class="points"/><g class="text"/></g><g class="trace scatter trace2c4fda" style="stroke-miterlimit: 2;"><g class="fills"><g><path class="js-fill" d="M0,274.56L24.5,269.96L49,261.34L73.5,254.93L98,251.92L147,249.36L171.5,246.08L220.5,238.93L245,232.77L269.5,226.4L294,218.66L343,197.99L367.5,191.24L392,182.54L416.5,176.59L441,169.5L465.5,161.58L514.5,142.61L539,141.46L563.5,141.13L588,143.94L612.5,150.12L637,150.76L661.5,146.28L686,139.04L710.5,134.21L735,128.24L759.5,124.82L784,117.75L808.5,116.22L833,115.6L833,122.01L808.5,122.58L784,124.33L759.5,131.28L735,134.81L710.5,140.84L686,145.68L661.5,152.85L637,157.11L612.5,156.45L588,150.23L563.5,147.33L539,147.63L514.5,148.63L465.5,167.26L441,174.98L416.5,181.8L392,187.59L367.5,196.16L343,202.75L294,223.12L269.5,230.67L245,236.91L220.5,243.03L171.5,250L147,253.18L98,255.81L73.5,258.91L49,264.95L24.5,273.44L0,277.75Z" style="fill: rgb(115, 111, 76); fill-opacity: 0.5; stroke-width: 0;"/></g></g><g class="errorbars"/><g class="lines"><path class="js-line" d="M0,277.75L24.5,273.44L49,264.95L73.5,258.91L98,255.81L147,253.18L171.5,250L220.5,243.03L245,236.91L269.5,230.67L294,223.12L343,202.75L367.5,196.16L392,187.59L416.5,181.8L441,174.98L465.5,167.26L514.5,148.63L539,147.63L563.5,147.33L588,150.23L612.5,156.45L637,157.11L661.5,152.85L686,145.68L710.5,140.84L735,134.81L759.5,131.28L784,124.33L808.5,122.58L833,122.01" style="vector-effect: none; fill: none; stroke: rgb(82, 106, 131); stroke-opacity: 1; stroke-width: 2px; opacity: 1;"/></g><g class="points"/><g class="text"/></g><g class="trace scatter tracef1009a" style="stroke-miterlimit: 2;"><g class="fills"><g><path class="js-fill" d="M0,271.24L24.5,266.48L49,257.59L73.5,251.13L98,248.1L147,245.57L171.5,242.12L220.5,234.67L245,228.4L269.5,221.85L294,213.97L343,192.91L367.5,185.95L392,177.09L416.5,171.2L441,164.01L465.5,155.84L514.5,136.46L539,135.2L563.5,134.87L588,137.92L612.5,144.21L637,144.83L661.5,140.31L686,133.01L710.5,128.21L735,122.21L759.5,118.72L784,111.62L808.5,110.19L833,109.61L833,115.6L808.5,116.22L784,117.75L759.5,124.82L735,128.24L710.5,134.21L686,139.04L661.5,146.28L637,150.76L612.5,150.12L588,143.94L563.5,141.13L539,141.46L514.5,142.61L465.5,161.58L441,169.5L416.5,176.59L392,182.54L367.5,191.24L343,197.99L294,218.66L269.5,226.4L245,232.77L220.5,238.93L171.5,246.08L147,249.36L98,251.92L73.5,254.93L49,261.34L24.5,269.96L0,274.56Z" style="fill: rgb(175, 100, 88); fill-opacity: 0.5; stroke-width: 0;"/></g></g><g class="errorbars"/><g class="lines"><path class="js-line" d="M0,274.56L24.5,269.96L49,261.34L73.5,254.93L98,251.92L147,249.36L171.5,246.08L220.5,238.93L245,232.77L269.5,226.4L294,218.66L343,197.99L367.5,191.24L392,182.54L416.5,176.59L441,169.5L465.5,161.58L514.5,142.61L539,141.46L563.5,141.13L588,143.94L612.5,150.12L637,150.76L661.5,146.28L686,139.04L710.5,134.21L735,128.24L759.5,124.82L784,117.75L808.5,116.22L833,115.6" style="vector-effect: none; fill: none; stroke: rgb(115, 111, 76); stroke-opacity: 1; stroke-width: 2px; opacity: 1;"/></g><g class="points"/><g class="text"/></g><g class="trace scatter trace2113b2" style="stroke-miterlimit: 2;"><g class="fills"><g><path class="js-fill" d="M0,268.37L24.5,263.5L49,254.36L73.5,247.91L98,244.91L122.5,244.14L147,242.36L220.5,231.16L245,224.6L269.5,217.9L294,209.9L343,188.59L367.5,181.46L392,172.53L416.5,166.41L441,159.03L465.5,150.79L514.5,131.02L539,129.69L563.5,129.33L588,132.12L612.5,138.55L637,139.16L661.5,134.69L686,127.41L710.5,122.62L735,116.5L759.5,112.91L784,105.69L808.5,104.31L833,103.71L833,109.61L808.5,110.19L784,111.62L759.5,118.72L735,122.21L710.5,128.21L686,133.01L661.5,140.31L637,144.83L612.5,144.21L588,137.92L563.5,134.87L539,135.2L514.5,136.46L465.5,155.84L441,164.01L416.5,171.2L392,177.09L367.5,185.95L343,192.91L294,213.97L269.5,221.85L245,228.4L220.5,234.67L171.5,242.12L147,245.57L98,248.1L73.5,251.13L49,257.59L24.5,266.48L0,271.24Z" style="fill: rgb(217, 175, 107); fill-opacity: 0.5; stroke-width: 0;"/></g></g><g class="errorbars"/><g class="lines"><path class="js-line" d="M0,271.24L24.5,266.48L49,257.59L73.5,251.13L98,248.1L147,245.57L171.5,242.12L220.5,234.67L245,228.4L269.5,221.85L294,213.97L343,192.91L367.5,185.95L392,177.09L416.5,171.2L441,164.01L465.5,155.84L514.5,136.46L539,135.2L563.5,134.87L588,137.92L612.5,144.21L637,144.83L661.5,140.31L686,133.01L710.5,128.21L735,122.21L759.5,118.72L784,111.62L808.5,110.19L833,109.61" style="vector-effect: none; fill: none; stroke: rgb(175, 100, 88); stroke-opacity: 1; stroke-width: 2px; opacity: 1;"/></g><g class="points"/><g class="text"/></g><g class="trace scatter trace0c8799" style="stroke-miterlimit: 2;"><g class="fills"><g><path class="js-fill" d="M0,265.94L24.5,260.97L49,251.77L73.5,245.3L98,242.21L122.5,241.39L147,239.55L220.5,228.04L245,221.37L269.5,214.55L294,206.42L343,184.54L367.5,177.05L392,167.81L416.5,161.62L441,153.94L465.5,145.4L514.5,124.95L539,123.51L563.5,123.31L588,126.35L612.5,133.15L637,133.72L661.5,129.32L686,122.03L710.5,117.24L735,110.98L759.5,107.37L784,99.88L833,97.76L833,103.71L808.5,104.31L784,105.69L759.5,112.91L735,116.5L710.5,122.62L686,127.41L661.5,134.69L637,139.16L612.5,138.55L588,132.12L563.5,129.33L539,129.69L514.5,131.02L465.5,150.79L441,159.03L416.5,166.41L392,172.53L367.5,181.46L343,188.59L294,209.9L269.5,217.9L245,224.6L220.5,231.16L147,242.36L122.5,244.14L98,244.91L73.5,247.91L49,254.36L24.5,263.5L0,268.37Z" style="fill: rgb(133, 92, 117); fill-opacity: 0.5; stroke-width: 0;"/></g></g><g class="errorbars"/><g class="lines"><path class="js-line" d="M0,268.37L24.5,263.5L49,254.36L73.5,247.91L98,244.91L122.5,244.14L147,242.36L220.5,231.16L245,224.6L269.5,217.9L294,209.9L343,188.59L367.5,181.46L392,172.53L416.5,166.41L441,159.03L465.5,150.79L514.5,131.02L539,129.69L563.5,129.33L588,132.12L612.5,138.55L637,139.16L661.5,134.69L686,127.41L710.5,122.62L735,116.5L759.5,112.91L784,105.69L808.5,104.31L833,103.71" style="vector-effect: none; fill: none; stroke: rgb(217, 175, 107); stroke-opacity: 1; stroke-width: 2px; opacity: 1;"/></g><g class="points"/><g class="text"/></g><g class="trace scatter trace55e591" style="stroke-miterlimit: 2;"><g class="fills"><g><path class="js-fill" d="M0,263.13L24.5,258.21L49,248.96L73.5,242.47L98,239.31L122.5,238.48L147,236.57L171.5,233L196,228.58L220.5,224.88L245,218.09L269.5,211.07L294,202.79L343,180.56L367.5,172.85L392,163.35L416.5,157.15L441,149.31L465.5,140.59L514.5,119.66L539,118.41L563.5,118.1L588,121.22L612.5,128.18L637,128.73L661.5,124.14L686,116.72L710.5,111.8L735,105.48L759.5,101.74L784,93.91L833,91.64L833,97.76L784,99.88L759.5,107.37L735,110.98L710.5,117.24L686,122.03L661.5,129.32L637,133.72L612.5,133.15L588,126.35L563.5,123.31L539,123.51L514.5,124.95L465.5,145.4L441,153.94L416.5,161.62L392,167.81L367.5,177.05L343,184.54L294,206.42L269.5,214.55L245,221.37L220.5,228.04L147,239.55L122.5,241.39L98,242.21L73.5,245.3L49,251.77L24.5,260.97L0,265.94Z" style="fill: rgb(124, 124, 124); fill-opacity: 0.5; stroke-width: 0;"/></g></g><g class="errorbars"/><g class="lines"><path class="js-line" d="M0,265.94L24.5,260.97L49,251.77L73.5,245.3L98,242.21L122.5,241.39L147,239.55L220.5,228.04L245,221.37L269.5,214.55L294,206.42L343,184.54L367.5,177.05L392,167.81L416.5,161.62L441,153.94L465.5,145.4L514.5,124.95L539,123.51L563.5,123.31L588,126.35L612.5,133.15L637,133.72L661.5,129.32L686,122.03L710.5,117.24L735,110.98L759.5,107.37L784,99.88L833,97.76" style="vector-effect: none; fill: none; stroke: rgb(133, 92, 117); stroke-opacity: 1; stroke-width: 2px; opacity: 1;"/></g><g class="points"/><g class="text"/></g><g class="trace scatter trace76b00c" style="stroke-miterlimit: 2;"><g class="fills"><g><path class="js-fill" d="M0,260.14L24.5,255.32L49,245.97L73.5,239.19L98,235.99L122.5,235.11L147,233.3L171.5,229.71L196,225.23L220.5,221.55L245,214.66L269.5,207.46L294,199.04L343,176.81L367.5,168.93L392,159.3L416.5,152.97L465.5,136.39L490,126.05L514.5,114.74L539,113.25L563.5,112.92L588,116.01L612.5,123.07L637,123.74L661.5,119.09L686,111.6L710.5,106.76L735,100.46L759.5,96.72L784,88.9L833,86.47L833,91.64L784,93.91L759.5,101.74L735,105.48L710.5,111.8L686,116.72L661.5,124.14L637,128.73L612.5,128.18L588,121.22L563.5,118.1L539,118.41L514.5,119.66L465.5,140.59L441,149.31L416.5,157.15L392,163.35L367.5,172.85L343,180.56L294,202.79L269.5,211.07L245,218.09L220.5,224.88L196,228.58L171.5,233L147,236.57L122.5,238.48L98,239.31L73.5,242.47L49,248.96L24.5,258.21L0,263.13Z" style="fill: rgb(140, 120, 93); fill-opacity: 0.5; stroke-width: 0;"/></g></g><g class="errorbars"/><g class="lines"><path class="js-line" d="M0,263.13L24.5,258.21L49,248.96L73.5,242.47L98,239.31L122.5,238.48L147,236.57L171.5,233L196,228.58L220.5,224.88L245,218.09L269.5,211.07L294,202.79L343,180.56L367.5,172.85L392,163.35L416.5,157.15L441,149.31L465.5,140.59L514.5,119.66L539,118.41L563.5,118.1L588,121.22L612.5,128.18L637,128.73L661.5,124.14L686,116.72L710.5,111.8L735,105.48L759.5,101.74L784,93.91L833,91.64" style="vector-effect: none; fill: none; stroke: rgb(124, 124, 124); stroke-opacity: 1; stroke-width: 2px; opacity: 1;"/></g><g class="points"/><g class="text"/></g><g class="trace scatter trace445dad" style="stroke-miterlimit: 2;"><g class="fills"><g><path class="js-fill" d="M0,257.74L24.5,252.87L49,243.4L73.5,236.51L98,233.26L122.5,232.4L147,230.55L171.5,226.94L196,222.41L220.5,218.65L245,211.64L269.5,204.31L294,195.74L343,173.05L367.5,165.06L392,155.38L416.5,149.01L465.5,132.08L490,121.61L514.5,110.08L539,108.55L563.5,108.32L588,111.54L612.5,118.6L637,119.12L661.5,114.41L686,106.82L710.5,101.93L735,95.5L759.5,91.69L784,83.82L833,81.2L833,86.47L784,88.9L759.5,96.72L735,100.46L710.5,106.76L686,111.6L661.5,119.09L637,123.74L612.5,123.07L588,116.01L563.5,112.92L539,113.25L514.5,114.74L490,126.05L465.5,136.39L416.5,152.97L392,159.3L367.5,168.93L343,176.81L294,199.04L269.5,207.46L245,214.66L220.5,221.55L196,225.23L171.5,229.71L147,233.3L122.5,235.11L98,235.99L73.5,239.19L49,245.97L24.5,255.32L0,260.14Z" style="fill: rgb(160, 97, 119); fill-opacity: 0.5; stroke-width: 0;"/></g></g><g class="errorbars"/><g class="lines"><path class="js-line" d="M0,260.14L24.5,255.32L49,245.97L73.5,239.19L98,235.99L122.5,235.11L147,233.3L171.5,229.71L196,225.23L220.5,221.55L245,214.66L269.5,207.46L294,199.04L343,176.81L367.5,168.93L392,159.3L416.5,152.97L465.5,136.39L490,126.05L514.5,114.74L539,113.25L563.5,112.92L588,116.01L612.5,123.07L637,123.74L661.5,119.09L686,111.6L710.5,106.76L735,100.46L759.5,96.72L784,88.9L833,86.47" style="vector-effect: none; fill: none; stroke: rgb(140, 120, 93); stroke-opacity: 1; stroke-width: 2px; opacity: 1;"/></g><g class="points"/><g class="text"/></g><g class="trace scatter trace2fab0c" style="stroke-miterlimit: 2;"><g class="fills"><g><path class="js-fill" d="M0,255.4L24.5,250.5L49,240.76L73.5,233.88L98,230.54L122.5,229.79L147,227.88L171.5,224.15L196,219.49L220.5,215.6L245,208.49L269.5,201.06L294,192.34L343,169.41L367.5,161.44L392,151.64L416.5,145.21L441,136.93L465.5,127.77L490,117L514.5,105.15L539,103.82L563.5,103.64L588,106.98L612.5,114.28L637,114.77L661.5,110L686,102.45L710.5,97.6L735,91.13L759.5,87.34L784,79.4L808.5,77.98L833,76.74L833,81.2L784,83.82L759.5,91.69L735,95.5L710.5,101.93L686,106.82L661.5,114.41L637,119.12L612.5,118.6L588,111.54L563.5,108.32L539,108.55L514.5,110.08L490,121.61L465.5,132.08L416.5,149.01L392,155.38L367.5,165.06L343,173.05L294,195.74L269.5,204.31L245,211.64L220.5,218.65L196,222.41L171.5,226.94L147,230.55L122.5,232.4L98,233.26L73.5,236.51L49,243.4L24.5,252.87L0,257.74Z" style="fill: rgb(156, 156, 94); fill-opacity: 0.5; stroke-width: 0;"/></g></g><g class="errorbars"/><g class="lines"><path class="js-line" d="M0,257.74L24.5,252.87L49,243.4L73.5,236.51L98,233.26L122.5,232.4L147,230.55L171.5,226.94L196,222.41L220.5,218.65L245,211.64L269.5,204.31L294,195.74L343,173.05L367.5,165.06L392,155.38L416.5,149.01L465.5,132.08L490,121.61L514.5,110.08L539,108.55L563.5,108.32L588,111.54L612.5,118.6L637,119.12L661.5,114.41L686,106.82L710.5,101.93L735,95.5L759.5,91.69L784,83.82L833,81.2" style="vector-effect: none; fill: none; stroke: rgb(160, 97, 119); stroke-opacity: 1; stroke-width: 2px; opacity: 1;"/></g><g class="points"/><g class="text"/></g><g class="trace scatter trace300989" style="stroke-miterlimit: 2;"><g class="fills"><g><path class="js-fill" d="M0,253.3L24.5,248.29L49,238.43L73.5,231.42L98,227.82L122.5,226.93L147,225L171.5,221.21L196,216.6L220.5,212.62L245,205.4L269.5,197.93L294,189.09L343,166.02L367.5,157.95L392,148.11L416.5,141.61L441,133.21L465.5,123.83L490,112.99L514.5,100.95L539,99.64L563.5,99.37L588,102.68L612.5,109.97L637,110.55L661.5,105.84L686,98.22L710.5,93.36L735,86.88L759.5,82.78L784,74.88L808.5,73.41L833,72.26L833,76.74L808.5,77.98L784,79.4L759.5,87.34L735,91.13L710.5,97.6L686,102.45L661.5,110L637,114.77L612.5,114.28L588,106.98L563.5,103.64L539,103.82L514.5,105.15L490,117L465.5,127.77L441,136.93L416.5,145.21L392,151.64L367.5,161.44L343,169.41L294,192.34L269.5,201.06L245,208.49L220.5,215.6L196,219.49L171.5,224.15L147,227.88L122.5,229.79L98,230.54L73.5,233.88L49,240.76L24.5,250.5L0,255.4Z" style="fill: rgb(104, 133, 92); fill-opacity: 0.5; stroke-width: 0;"/></g></g><g class="errorbars"/><g class="lines"><path class="js-line" d="M0,255.4L24.5,250.5L49,240.76L73.5,233.88L98,230.54L122.5,229.79L147,227.88L171.5,224.15L196,219.49L220.5,215.6L245,208.49L269.5,201.06L294,192.34L343,169.41L367.5,161.44L392,151.64L416.5,145.21L441,136.93L465.5,127.77L490,117L514.5,105.15L539,103.82L563.5,103.64L588,106.98L612.5,114.28L637,114.77L661.5,110L686,102.45L710.5,97.6L735,91.13L759.5,87.34L784,79.4L808.5,77.98L833,76.74" style="vector-effect: none; fill: none; stroke: rgb(156, 156, 94); stroke-opacity: 1; stroke-width: 2px; opacity: 1;"/></g><g class="points"/><g class="text"/></g><g class="trace scatter traceccba8b" style="stroke-miterlimit: 2;"><g class="fills"><g><path class="js-fill" d="M0,250.99L24.5,245.83L49,235.86L73.5,228.77L98,225.13L122.5,224.16L147,222.08L171.5,218.38L196,213.76L220.5,209.75L245,202.48L269.5,194.82L294,185.84L343,162.58L367.5,154.52L392,144.78L416.5,138.3L441,129.76L465.5,120.22L490,109.27L514.5,97.04L539,95.72L563.5,95.58L588,98.92L612.5,106.32L637,106.96L661.5,102.15L686,94.38L710.5,89.44L735,82.86L759.5,78.61L784,70.59L808.5,69.06L833,67.87L833,72.26L808.5,73.41L784,74.88L759.5,82.78L735,86.88L710.5,93.36L686,98.22L661.5,105.84L637,110.55L612.5,109.97L588,102.68L563.5,99.37L539,99.64L514.5,100.95L490,112.99L465.5,123.83L441,133.21L416.5,141.61L392,148.11L367.5,157.95L343,166.02L294,189.09L269.5,197.93L245,205.4L220.5,212.62L196,216.6L171.5,221.21L147,225L122.5,226.93L98,227.82L73.5,231.42L49,238.43L24.5,248.29L0,253.3Z" style="fill: rgb(98, 83, 119); fill-opacity: 0.5; stroke-width: 0;"/></g></g><g class="errorbars"/><g class="lines"><path class="js-line" d="M0,253.3L24.5,248.29L49,238.43L73.5,231.42L98,227.82L122.5,226.93L147,225L171.5,221.21L196,216.6L220.5,212.62L245,205.4L269.5,197.93L294,189.09L343,166.02L367.5,157.95L392,148.11L416.5,141.61L441,133.21L465.5,123.83L490,112.99L514.5,100.95L539,99.64L563.5,99.37L588,102.68L612.5,109.97L637,110.55L661.5,105.84L686,98.22L710.5,93.36L735,86.88L759.5,82.78L784,74.88L808.5,73.41L833,72.26" style="vector-effect: none; fill: none; stroke: rgb(104, 133, 92); stroke-opacity: 1; stroke-width: 2px; opacity: 1;"/></g><g class="points"/><g class="text"/></g><g class="trace scatter trace9a0f23" style="stroke-miterlimit: 2;"><g class="fills"><g><path class="js-fill" d="M0,248.74L24.5,243.69L49,233.65L73.5,226.56L98,222.82L122.5,221.76L147,219.59L196,211.09L220.5,207.11L269.5,192L294,182.91L343,159.45L367.5,151.35L392,141.73L416.5,135.25L441,126.55L465.5,116.89L490,105.76L514.5,93.48L539,92.12L563.5,91.94L588,95.43L612.5,102.81L637,103.41L661.5,98.58L686,90.81L710.5,85.91L735,79.47L759.5,75.18L784,66.79L808.5,65.22L833,63.9L833,67.87L808.5,69.06L784,70.59L759.5,78.61L735,82.86L710.5,89.44L686,94.38L661.5,102.15L637,106.96L612.5,106.32L588,98.92L563.5,95.58L539,95.72L514.5,97.04L490,109.27L465.5,120.22L441,129.76L416.5,138.3L392,144.78L367.5,154.52L343,162.58L294,185.84L269.5,194.82L245,202.48L220.5,209.75L196,213.76L171.5,218.38L147,222.08L122.5,224.16L98,225.13L73.5,228.77L49,235.86L24.5,245.83L0,250.99Z" style="fill: rgb(82, 106, 131); fill-opacity: 0.5; stroke-width: 0;"/></g></g><g class="errorbars"/><g class="lines"><path class="js-line" d="M0,250.99L24.5,245.83L49,235.86L73.5,228.77L98,225.13L122.5,224.16L147,222.08L171.5,218.38L196,213.76L220.5,209.75L245,202.48L269.5,194.82L294,185.84L343,162.58L367.5,154.52L392,144.78L416.5,138.3L441,129.76L465.5,120.22L490,109.27L514.5,97.04L539,95.72L563.5,95.58L588,98.92L612.5,106.32L637,106.96L661.5,102.15L686,94.38L710.5,89.44L735,82.86L759.5,78.61L784,70.59L808.5,69.06L833,67.87" style="vector-effect: none; fill: none; stroke: rgb(98, 83, 119); stroke-opacity: 1; stroke-width: 2px; opacity: 1;"/></g><g class="points"/><g class="text"/></g><g class="trace scatter traceb21621" style="stroke-miterlimit: 2;"><g class="fills"><g><path class="js-fill" d="M0,246.48L24.5,241.34L49,231.31L73.5,224.25L98,220.47L122.5,219.27L147,217.08L171.5,213.2L196,208.56L220.5,204.53L245,197.1L269.5,189.31L294,180.18L343,156.58L367.5,148.44L392,138.8L416.5,132.36L441,123.61L465.5,113.84L490,102.64L514.5,90.24L539,88.77L563.5,88.58L588,92.07L612.5,99.45L637,99.99L661.5,95.08L686,87.26L710.5,82.35L735,75.87L759.5,71.55L784,63.16L808.5,61.62L833,60.26L833,63.9L808.5,65.22L784,66.79L759.5,75.18L735,79.47L710.5,85.91L686,90.81L661.5,98.58L637,103.41L612.5,102.81L588,95.43L563.5,91.94L539,92.12L514.5,93.48L490,105.76L465.5,116.89L441,126.55L416.5,135.25L392,141.73L367.5,151.35L343,159.45L294,182.91L269.5,192L220.5,207.11L196,211.09L147,219.59L122.5,221.76L98,222.82L73.5,226.56L49,233.65L24.5,243.69L0,248.74Z" style="fill: rgb(115, 111, 76); fill-opacity: 0.5; stroke-width: 0;"/></g></g><g class="errorbars"/><g class="lines"><path class="js-line" d="M0,248.74L24.5,243.69L49,233.65L73.5,226.56L98,222.82L122.5,221.76L147,219.59L196,211.09L220.5,207.11L269.5,192L294,182.91L343,159.45L367.5,151.35L392,141.73L416.5,135.25L441,126.55L465.5,116.89L490,105.76L514.5,93.48L539,92.12L563.5,91.94L588,95.43L612.5,102.81L637,103.41L661.5,98.58L686,90.81L710.5,85.91L735,79.47L759.5,75.18L784,66.79L808.5,65.22L833,63.9" style="vector-effect: none; fill: none; stroke: rgb(82, 106, 131); stroke-opacity: 1; stroke-width: 2px; opacity: 1;"/></g><g class="points"/><g class="text"/></g><g class="trace scatter trace625f68" style="stroke-miterlimit: 2;"><g class="fills"><g><path class="js-fill" d="M0,244.51L24.5,239.35L49,229.24L73.5,222.12L98,218.35L122.5,217.13L147,214.8L196,206.24L220.5,202.19L269.5,186.9L294,177.69L343,153.85L367.5,145.63L392,135.98L416.5,129.47L441,120.73L465.5,110.79L490,99.44L514.5,86.89L539,85.36L563.5,85.26L588,88.79L612.5,96.15L637,96.73L661.5,91.76L686,83.96L710.5,79.17L735,72.69L759.5,68.22L784,59.82L808.5,58.16L833,56.77L833,60.26L808.5,61.62L784,63.16L759.5,71.55L735,75.87L710.5,82.35L686,87.26L661.5,95.08L637,99.99L612.5,99.45L588,92.07L563.5,88.58L539,88.77L514.5,90.24L490,102.64L465.5,113.84L441,123.61L416.5,132.36L392,138.8L367.5,148.44L343,156.58L294,180.18L269.5,189.31L245,197.1L220.5,204.53L196,208.56L171.5,213.2L147,217.08L122.5,219.27L98,220.47L73.5,224.25L49,231.31L24.5,241.34L0,246.48Z" style="fill: rgb(175, 100, 88); fill-opacity: 0.5; stroke-width: 0;"/></g></g><g class="errorbars"/><g class="lines"><path class="js-line" d="M0,246.48L24.5,241.34L49,231.31L73.5,224.25L98,220.47L122.5,219.27L147,217.08L171.5,213.2L196,208.56L220.5,204.53L245,197.1L269.5,189.31L294,180.18L343,156.58L367.5,148.44L392,138.8L416.5,132.36L441,123.61L465.5,113.84L490,102.64L514.5,90.24L539,88.77L563.5,88.58L588,92.07L612.5,99.45L637,99.99L661.5,95.08L686,87.26L710.5,82.35L735,75.87L759.5,71.55L784,63.16L808.5,61.62L833,60.26" style="vector-effect: none; fill: none; stroke: rgb(115, 111, 76); stroke-opacity: 1; stroke-width: 2px; opacity: 1;"/></g><g class="points"/><g class="text"/></g><g class="trace scatter traced56021" style="stroke-miterlimit: 2;"><g class="fills"><g><path class="js-fill" d="M0,243.04L24.5,237.82L49,227.65L73.5,220.49L98,216.69L122.5,215.38L147,213.06L196,204.43L220.5,200.31L269.5,184.98L294,175.72L343,151.75L367.5,143.33L392,133.63L416.5,127.01L441,117.99L465.5,107.91L490,96.48L514.5,83.89L539,82.35L563.5,82.13L588,85.62L612.5,93.03L637,93.65L661.5,88.64L686,80.87L710.5,76.1L735,69.65L759.5,65.18L784,56.77L808.5,55.17L833,53.68L833,56.77L808.5,58.16L784,59.82L759.5,68.22L735,72.69L710.5,79.17L686,83.96L661.5,91.76L637,96.73L612.5,96.15L588,88.79L563.5,85.26L539,85.36L514.5,86.89L490,99.44L465.5,110.79L441,120.73L416.5,129.47L392,135.98L367.5,145.63L343,153.85L294,177.69L269.5,186.9L220.5,202.19L196,206.24L147,214.8L122.5,217.13L98,218.35L73.5,222.12L49,229.24L24.5,239.35L0,244.51Z" style="fill: rgb(217, 175, 107); fill-opacity: 0.5; stroke-width: 0;"/></g></g><g class="errorbars"/><g class="lines"><path class="js-line" d="M0,244.51L24.5,239.35L49,229.24L73.5,222.12L98,218.35L122.5,217.13L147,214.8L196,206.24L220.5,202.19L269.5,186.9L294,177.69L343,153.85L367.5,145.63L392,135.98L416.5,129.47L441,120.73L465.5,110.79L490,99.44L514.5,86.89L539,85.36L563.5,85.26L588,88.79L612.5,96.15L637,96.73L661.5,91.76L686,83.96L710.5,79.17L735,72.69L759.5,68.22L784,59.82L808.5,58.16L833,56.77" style="vector-effect: none; fill: none; stroke: rgb(175, 100, 88); stroke-opacity: 1; stroke-width: 2px; opacity: 1;"/></g><g class="points"/><g class="text"/></g><g class="trace scatter trace51906b" style="stroke-miterlimit: 2;"><g class="fills"><g><path class="js-fill" d="M0,241.57L24.5,236.27L49,225.99L73.5,218.79L98,215.04L122.5,213.75L147,211.43L171.5,207.4L196,202.57L220.5,198.43L245,190.98L269.5,183.04L294,173.71L343,149.6L367.5,141.17L392,131.35L416.5,124.6L441,115.49L465.5,105.22L490,93.76L514.5,81.08L539,79.54L563.5,79.33L588,82.93L612.5,90.34L637,90.98L661.5,85.98L686,78.2L710.5,73.44L735,67.04L759.5,62.6L784,54.19L808.5,52.57L833,51.15L833,53.68L808.5,55.17L784,56.77L759.5,65.18L735,69.65L710.5,76.1L686,80.87L661.5,88.64L637,93.65L612.5,93.03L588,85.62L563.5,82.13L539,82.35L514.5,83.89L490,96.48L465.5,107.91L441,117.99L416.5,127.01L392,133.63L367.5,143.33L343,151.75L294,175.72L269.5,184.98L220.5,200.31L196,204.43L147,213.06L122.5,215.38L98,216.69L73.5,220.49L49,227.65L24.5,237.82L0,243.04Z" style="fill: rgb(133, 92, 117); fill-opacity: 0.5; stroke-width: 0;"/></g></g><g class="errorbars"/><g class="lines"><path class="js-line" d="M0,243.04L24.5,237.82L49,227.65L73.5,220.49L98,216.69L122.5,215.38L147,213.06L196,204.43L220.5,200.31L269.5,184.98L294,175.72L343,151.75L367.5,143.33L392,133.63L416.5,127.01L441,117.99L465.5,107.91L490,96.48L514.5,83.89L539,82.35L563.5,82.13L588,85.62L612.5,93.03L637,93.65L661.5,88.64L686,80.87L710.5,76.1L735,69.65L759.5,65.18L784,56.77L808.5,55.17L833,53.68" style="vector-effect: none; fill: none; stroke: rgb(217, 175, 107); stroke-opacity: 1; stroke-width: 2px; opacity: 1;"/></g><g class="points"/><g class="text"/></g><g class="trace scatter trace9aaafc" style="stroke-miterlimit: 2;"><g class="fills"><g><path class="js-fill" d="M0,240.33L24.5,235.04L49,224.73L73.5,217.49L98,213.68L122.5,212.38L147,210.02L171.5,205.9L196,201.01L220.5,196.82L245,189.31L269.5,181.32L294,171.93L343,147.72L367.5,139.23L392,129.45L416.5,122.64L441,113.46L465.5,103.12L490,91.55L514.5,78.59L539,76.96L563.5,76.79L588,80.37L612.5,87.78L637,88.36L661.5,83.3L686,75.44L710.5,70.59L735,64.11L759.5,59.55L784,51.01L808.5,49.27L833,47.68L833,51.15L808.5,52.57L784,54.19L759.5,62.6L735,67.04L710.5,73.44L686,78.2L661.5,85.98L637,90.98L612.5,90.34L588,82.93L563.5,79.33L539,79.54L514.5,81.08L490,93.76L465.5,105.22L441,115.49L416.5,124.6L392,131.35L367.5,141.17L343,149.6L294,173.71L269.5,183.04L245,190.98L220.5,198.43L196,202.57L171.5,207.4L147,211.43L122.5,213.75L98,215.04L73.5,218.79L49,225.99L24.5,236.27L0,241.57Z" style="fill: rgb(124, 124, 124); fill-opacity: 0.5; stroke-width: 0;"/></g></g><g class="errorbars"/><g class="lines"><path class="js-line" d="M0,241.57L24.5,236.27L49,225.99L73.5,218.79L98,215.04L122.5,213.75L147,211.43L171.5,207.4L196,202.57L220.5,198.43L245,190.98L269.5,183.04L294,173.71L343,149.6L367.5,141.17L392,131.35L416.5,124.6L441,115.49L465.5,105.22L490,93.76L514.5,81.08L539,79.54L563.5,79.33L588,82.93L612.5,90.34L637,90.98L661.5,85.98L686,78.2L710.5,73.44L735,67.04L759.5,62.6L784,54.19L808.5,52.57L833,51.15" style="vector-effect: none; fill: none; stroke: rgb(133, 92, 117); stroke-opacity: 1; stroke-width: 2px; opacity: 1;"/></g><g class="points"/><g class="text"/></g><g class="trace scatter trace54dcfb" style="stroke-miterlimit: 2;"><g class="fills"><g><path class="js-fill" d="M0,239.08L24.5,233.78L49,223.39L73.5,216.06L98,212.26L122.5,210.92L147,208.56L196,199.47L220.5,195.27L269.5,179.76L294,170.33L343,145.99L367.5,137.43L392,127.6L416.5,120.73L441,111.52L465.5,101.1L490,89.47L514.5,76.45L539,74.8L563.5,74.51L588,78.08L612.5,85.5L637,85.99L661.5,80.91L686,73L710.5,68.13L735,61.62L759.5,57.04L784,48.55L808.5,46.81L833,45.16L833,47.68L808.5,49.27L784,51.01L759.5,59.55L735,64.11L710.5,70.59L686,75.44L661.5,83.3L637,88.36L612.5,87.78L588,80.37L563.5,76.79L539,76.96L514.5,78.59L490,91.55L465.5,103.12L441,113.46L416.5,122.64L392,129.45L367.5,139.23L343,147.72L294,171.93L269.5,181.32L245,189.31L220.5,196.82L196,201.01L171.5,205.9L147,210.02L122.5,212.38L98,213.68L73.5,217.49L49,224.73L24.5,235.04L0,240.33Z" style="fill: rgb(140, 120, 93); fill-opacity: 0.5; stroke-width: 0;"/></g></g><g class="errorbars"/><g class="lines"><path class="js-line" d="M0,240.33L24.5,235.04L49,224.73L73.5,217.49L98,213.68L122.5,212.38L147,210.02L171.5,205.9L196,201.01L220.5,196.82L245,189.31L269.5,181.32L294,171.93L343,147.72L367.5,139.23L392,129.45L416.5,122.64L441,113.46L465.5,103.12L490,91.55L514.5,78.59L539,76.96L563.5,76.79L588,80.37L612.5,87.78L637,88.36L661.5,83.3L686,75.44L710.5,70.59L735,64.11L759.5,59.55L784,51.01L808.5,49.27L833,47.68" style="vector-effect: none; fill: none; stroke: rgb(124, 124, 124); stroke-opacity: 1; stroke-width: 2px; opacity: 1;"/></g><g class="points"/><g class="text"/></g><g class="trace scatter trace4d5c5d" style="stroke-miterlimit: 2;"><g class="fills"><g><path class="js-fill" d="M0,238.4L24.5,233.07L49,222.63L73.5,215.24L98,211.31L122.5,209.91L147,207.5L171.5,203.3L196,198.33L220.5,194.05L245,186.44L269.5,178.35L294,168.81L343,144.33L367.5,135.66L392,125.79L416.5,118.78L441,109.41L465.5,98.86L490,87.02L514.5,73.91L539,72.24L563.5,71.99L588,75.54L612.5,83.08L637,83.61L661.5,78.47L686,70.5L710.5,65.55L735,58.96L759.5,54.39L784,45.85L808.5,44.05L833,42.41L833,45.16L808.5,46.81L784,48.55L759.5,57.04L735,61.62L710.5,68.13L686,73L661.5,80.91L637,85.99L612.5,85.5L588,78.08L563.5,74.51L539,74.8L514.5,76.45L490,89.47L465.5,101.1L441,111.52L416.5,120.73L392,127.6L367.5,137.43L343,145.99L294,170.33L269.5,179.76L220.5,195.27L196,199.47L147,208.56L122.5,210.92L98,212.26L73.5,216.06L49,223.39L24.5,233.78L0,239.08Z" style="fill: rgb(160, 97, 119); fill-opacity: 0.5; stroke-width: 0;"/></g></g><g class="errorbars"/><g class="lines"><path class="js-line" d="M0,239.08L24.5,233.78L49,223.39L73.5,216.06L98,212.26L122.5,210.92L147,208.56L196,199.47L220.5,195.27L269.5,179.76L294,170.33L343,145.99L367.5,137.43L392,127.6L416.5,120.73L441,111.52L465.5,101.1L490,89.47L514.5,76.45L539,74.8L563.5,74.51L588,78.08L612.5,85.5L637,85.99L661.5,80.91L686,73L710.5,68.13L735,61.62L759.5,57.04L784,48.55L808.5,46.81L833,45.16" style="vector-effect: none; fill: none; stroke: rgb(140, 120, 93); stroke-opacity: 1; stroke-width: 2px; opacity: 1;"/></g><g class="points"/><g class="text"/></g><g class="trace scatter trace6c2a89" style="stroke-miterlimit: 2;"><g class="fills"><g><path class="js-fill" d="M0,236.78L24.5,231.51L49,221.18L73.5,213.72L98,209.69L122.5,208.32L147,205.84L171.5,201.65L196,196.63L220.5,192.35L245,184.74L269.5,176.64L294,167.06L343,142.53L367.5,133.85L392,123.91L416.5,116.88L441,107.46L465.5,96.86L490,85L514.5,71.86L539,70.11L563.5,69.66L588,73.19L612.5,80.86L637,81.49L661.5,76.38L686,68.43L710.5,63.56L735,56.97L759.5,52.49L784,43.9L808.5,42.12L833,40.5L833,42.41L808.5,44.05L784,45.85L759.5,54.39L735,58.96L710.5,65.55L686,70.5L661.5,78.47L637,83.61L612.5,83.08L588,75.54L563.5,71.99L539,72.24L514.5,73.91L490,87.02L465.5,98.86L441,109.41L416.5,118.78L392,125.79L367.5,135.66L343,144.33L294,168.81L269.5,178.35L245,186.44L220.5,194.05L196,198.33L171.5,203.3L147,207.5L122.5,209.91L98,211.31L73.5,215.24L49,222.63L24.5,233.07L0,238.4Z" style="fill: rgb(156, 156, 94); fill-opacity: 0.5; stroke-width: 0;"/></g></g><g class="errorbars"/><g class="lines"><path class="js-line" d="M0,238.4L24.5,233.07L49,222.63L73.5,215.24L98,211.31L122.5,209.91L147,207.5L171.5,203.3L196,198.33L220.5,194.05L245,186.44L269.5,178.35L294,168.81L343,144.33L367.5,135.66L392,125.79L416.5,118.78L441,109.41L465.5,98.86L490,87.02L514.5,73.91L539,72.24L563.5,71.99L588,75.54L612.5,83.08L637,83.61L661.5,78.47L686,70.5L710.5,65.55L735,58.96L759.5,54.39L784,45.85L808.5,44.05L833,42.41" style="vector-effect: none; fill: none; stroke: rgb(160, 97, 119); stroke-opacity: 1; stroke-width: 2px; opacity: 1;"/></g><g class="points"/><g class="text"/></g><g class="trace scatter trace74adc4" style="stroke-miterlimit: 2;"><g class="fills"><g><path class="js-fill" d="M0,235.63L24.5,230.35L49,219.99L73.5,212.54L98,208.45L122.5,207.04L147,204.57L171.5,200.33L196,195.24L220.5,190.93L245,183.32L269.5,175.16L294,165.49L343,140.84L367.5,132.05L392,122.08L416.5,114.95L441,105.49L465.5,94.8L490,82.85L514.5,69.66L539,67.86L563.5,67.41L588,71.03L612.5,78.81L637,79.42L661.5,74.3L686,66.3L710.5,61.46L735,54.91L759.5,50.48L784,41.84L808.5,39.88L833,38.36L833,40.5L808.5,42.12L784,43.9L759.5,52.49L735,56.97L710.5,63.56L686,68.43L661.5,76.38L637,81.49L612.5,80.86L588,73.19L563.5,69.66L539,70.11L514.5,71.86L490,85L465.5,96.86L441,107.46L416.5,116.88L392,123.91L367.5,133.85L343,142.53L294,167.06L269.5,176.64L245,184.74L220.5,192.35L196,196.63L171.5,201.65L147,205.84L122.5,208.32L98,209.69L73.5,213.72L49,221.18L24.5,231.51L0,236.78Z" style="fill: rgb(104, 133, 92); fill-opacity: 0.5; stroke-width: 0;"/></g></g><g class="errorbars"/><g class="lines"><path class="js-line" d="M0,236.78L24.5,231.51L49,221.18L73.5,213.72L98,209.69L122.5,208.32L147,205.84L171.5,201.65L196,196.63L220.5,192.35L245,184.74L269.5,176.64L294,167.06L343,142.53L367.5,133.85L392,123.91L416.5,116.88L441,107.46L465.5,96.86L490,85L514.5,71.86L539,70.11L563.5,69.66L588,73.19L612.5,80.86L637,81.49L661.5,76.38L686,68.43L710.5,63.56L735,56.97L759.5,52.49L784,43.9L808.5,42.12L833,40.5" style="vector-effect: none; fill: none; stroke: rgb(156, 156, 94); stroke-opacity: 1; stroke-width: 2px; opacity: 1;"/></g><g class="points"/><g class="text"/></g><g class="trace scatter trace44bc03" style="stroke-miterlimit: 2;"><g class="fills"><g><path class="js-fill" d="M0,234.63L24.5,229.29L49,218.88L73.5,211.33L98,207.27L122.5,205.85L147,203.33L171.5,199.13L196,194L220.5,189.69L245,182.06L269.5,173.87L294,164.17L343,139.41L367.5,130.58L392,120.54L416.5,113.39L441,103.9L465.5,93.19L490,81.19L514.5,67.99L539,66.19L563.5,65.76L588,69.38L612.5,77.23L637,77.86L661.5,72.7L686,64.67L710.5,59.84L735,53.28L759.5,48.84L784,40.16L808.5,38.2L833,36.57L833,38.36L808.5,39.88L784,41.84L759.5,50.48L735,54.91L710.5,61.46L686,66.3L661.5,74.3L637,79.42L612.5,78.81L588,71.03L563.5,67.41L539,67.86L514.5,69.66L490,82.85L465.5,94.8L441,105.49L416.5,114.95L392,122.08L367.5,132.05L343,140.84L294,165.49L269.5,175.16L245,183.32L220.5,190.93L196,195.24L171.5,200.33L147,204.57L122.5,207.04L98,208.45L73.5,212.54L49,219.99L24.5,230.35L0,235.63Z" style="fill: rgb(98, 83, 119); fill-opacity: 0.5; stroke-width: 0;"/></g></g><g class="errorbars"/><g class="lines"><path class="js-line" d="M0,235.63L24.5,230.35L49,219.99L73.5,212.54L98,208.45L122.5,207.04L147,204.57L171.5,200.33L196,195.24L220.5,190.93L245,183.32L269.5,175.16L294,165.49L343,140.84L367.5,132.05L392,122.08L416.5,114.95L441,105.49L465.5,94.8L490,82.85L514.5,69.66L539,67.86L563.5,67.41L588,71.03L612.5,78.81L637,79.42L661.5,74.3L686,66.3L710.5,61.46L735,54.91L759.5,50.48L784,41.84L808.5,39.88L833,38.36" style="vector-effect: none; fill: none; stroke: rgb(104, 133, 92); stroke-opacity: 1; stroke-width: 2px; opacity: 1;"/></g><g class="points"/><g class="text"/></g><g class="trace scatter trace89bc96" style="stroke-miterlimit: 2;"><g class="fills"><g><path class="js-fill" d="M0,233.85L24.5,228.43L49,217.99L73.5,210.38L98,206.3L122.5,204.87L147,202.33L171.5,198.13L196,192.99L220.5,188.65L245,180.98L269.5,172.76L294,163.01L343,138.14L367.5,129.24L392,119.12L416.5,111.89L441,102.34L465.5,91.58L490,79.53L514.5,66.26L539,64.42L563.5,63.95L588,67.56L612.5,75.44L637,76.09L661.5,70.92L686,62.9L710.5,58.05L735,51.5L759.5,47.04L784,38.36L808.5,36.41L833,34.76L833,36.57L808.5,38.2L784,40.16L759.5,48.84L735,53.28L710.5,59.84L686,64.67L661.5,72.7L637,77.86L612.5,77.23L588,69.38L563.5,65.76L539,66.19L514.5,67.99L490,81.19L465.5,93.19L441,103.9L416.5,113.39L392,120.54L367.5,130.58L343,139.41L294,164.17L269.5,173.87L245,182.06L220.5,189.69L196,194L171.5,199.13L147,203.33L122.5,205.85L98,207.27L73.5,211.33L49,218.88L24.5,229.29L0,234.63Z" style="fill: rgb(82, 106, 131); fill-opacity: 0.5; stroke-width: 0;"/></g></g><g class="errorbars"/><g class="lines"><path class="js-line" d="M0,234.63L24.5,229.29L49,218.88L73.5,211.33L98,207.27L122.5,205.85L147,203.33L171.5,199.13L196,194L220.5,189.69L245,182.06L269.5,173.87L294,164.17L343,139.41L367.5,130.58L392,120.54L416.5,113.39L441,103.9L465.5,93.19L490,81.19L514.5,67.99L539,66.19L563.5,65.76L588,69.38L612.5,77.23L637,77.86L661.5,72.7L686,64.67L710.5,59.84L735,53.28L759.5,48.84L784,40.16L808.5,38.2L833,36.57" style="vector-effect: none; fill: none; stroke: rgb(98, 83, 119); stroke-opacity: 1; stroke-width: 2px; opacity: 1;"/></g><g class="points"/><g class="text"/></g><g class="trace scatter traceef8a9e" style="stroke-miterlimit: 2;"><g class="fills"><g><path class="js-fill" d="M0,233.04L24.5,227.59L49,217.09L73.5,209.45L98,205.39L122.5,203.96L147,201.38L171.5,197.14L196,191.97L220.5,187.62L245,179.93L269.5,171.67L294,161.89L343,136.92L367.5,127.98L392,117.79L416.5,110.5L441,100.92L465.5,90.11L490,78.02L514.5,64.72L539,62.91L563.5,62.45L588,66.07L612.5,73.97L637,74.68L661.5,69.5L686,61.46L710.5,56.62L735,50.05L759.5,45.57L784,36.87L808.5,34.93L833,33.28L833,34.76L808.5,36.41L784,38.36L759.5,47.04L735,51.5L710.5,58.05L686,62.9L661.5,70.92L637,76.09L612.5,75.44L588,67.56L563.5,63.95L539,64.42L514.5,66.26L490,79.53L465.5,91.58L441,102.34L416.5,111.89L392,119.12L367.5,129.24L343,138.14L294,163.01L269.5,172.76L245,180.98L220.5,188.65L196,192.99L171.5,198.13L147,202.33L122.5,204.87L98,206.3L73.5,210.38L49,217.99L24.5,228.43L0,233.85Z" style="fill: rgb(115, 111, 76); fill-opacity: 0.5; stroke-width: 0;"/></g></g><g class="errorbars"/><g class="lines"><path class="js-line" d="M0,233.85L24.5,228.43L49,217.99L73.5,210.38L98,206.3L122.5,204.87L147,202.33L171.5,198.13L196,192.99L220.5,188.65L245,180.98L269.5,172.76L294,163.01L343,138.14L367.5,129.24L392,119.12L416.5,111.89L441,102.34L465.5,91.58L490,79.53L514.5,66.26L539,64.42L563.5,63.95L588,67.56L612.5,75.44L637,76.09L661.5,70.92L686,62.9L710.5,58.05L735,51.5L759.5,47.04L784,38.36L808.5,36.41L833,34.76" style="vector-effect: none; fill: none; stroke: rgb(82, 106, 131); stroke-opacity: 1; stroke-width: 2px; opacity: 1;"/></g><g class="points"/><g class="text"/></g><g class="trace scatter trace134e02" style="stroke-miterlimit: 2;"><g class="fills"><g><path class="js-fill" d="M0,232.28L24.5,226.82L49,216.31L73.5,208.65L98,204.49L122.5,203.02L147,200.41L171.5,196.15L196,190.98L220.5,186.64L245,178.96L269.5,170.67L294,160.88L343,135.9L367.5,126.88L392,116.6L416.5,109.26L441,99.65L465.5,88.75L490,76.51L514.5,63.19L539,61.33L563.5,60.97L588,64.59L612.5,72.49L637,73.24L661.5,67.98L686,59.95L710.5,55.04L735,48.44L759.5,43.91L784,35.14L808.5,33.19L833,31.62L833,33.28L808.5,34.93L784,36.87L759.5,45.57L735,50.05L710.5,56.62L686,61.46L661.5,69.5L637,74.68L612.5,73.97L588,66.07L563.5,62.45L539,62.91L514.5,64.72L490,78.02L465.5,90.11L441,100.92L416.5,110.5L392,117.79L367.5,127.98L343,136.92L294,161.89L269.5,171.67L245,179.93L220.5,187.62L196,191.97L171.5,197.14L147,201.38L122.5,203.96L98,205.39L73.5,209.45L49,217.09L24.5,227.59L0,233.04Z" style="fill: rgb(175, 100, 88); fill-opacity: 0.5; stroke-width: 0;"/></g></g><g class="errorbars"/><g class="lines"><path class="js-line" d="M0,233.04L24.5,227.59L49,217.09L73.5,209.45L98,205.39L122.5,203.96L147,201.38L171.5,197.14L196,191.97L220.5,187.62L245,179.93L269.5,171.67L294,161.89L343,136.92L367.5,127.98L392,117.79L416.5,110.5L441,100.92L465.5,90.11L490,78.02L514.5,64.72L539,62.91L563.5,62.45L588,66.07L612.5,73.97L637,74.68L661.5,69.5L686,61.46L710.5,56.62L735,50.05L759.5,45.57L784,36.87L808.5,34.93L833,33.28" style="vector-effect: none; fill: none; stroke: rgb(115, 111, 76); stroke-opacity: 1; stroke-width: 2px; opacity: 1;"/></g><g class="points"/><g class="text"/></g><g class="trace scatter trace1017b0" style="stroke-miterlimit: 2;"><g class="fills"><g><path class="js-fill" d="M0,231.27L24.5,225.86L49,215.41L73.5,207.69L98,203.55L122.5,202.04L147,199.42L171.5,195.16L196,189.99L220.5,185.66L245,177.98L269.5,169.69L294,159.88L343,134.87L367.5,125.84L392,115.54L416.5,108.19L441,98.54L465.5,87.59L490,75.3L514.5,61.8L539,59.91L563.5,59.51L588,63.06L612.5,70.94L637,71.64L661.5,66.4L686,58.25L710.5,53.59L735,46.99L759.5,42.49L784,33.72L808.5,31.78L833,30.19L833,31.62L808.5,33.19L784,35.14L759.5,43.91L735,48.44L710.5,55.04L686,59.95L661.5,67.98L637,73.24L612.5,72.49L588,64.59L563.5,60.97L539,61.33L514.5,63.19L490,76.51L465.5,88.75L441,99.65L416.5,109.26L392,116.6L367.5,126.88L343,135.9L294,160.88L269.5,170.67L245,178.96L220.5,186.64L196,190.98L171.5,196.15L147,200.41L122.5,203.02L98,204.49L73.5,208.65L49,216.31L24.5,226.82L0,232.28Z" style="fill: rgb(217, 175, 107); fill-opacity: 0.5; stroke-width: 0;"/></g></g><g class="errorbars"/><g class="lines"><path class="js-line" d="M0,232.28L24.5,226.82L49,216.31L73.5,208.65L98,204.49L122.5,203.02L147,200.41L171.5,196.15L196,190.98L220.5,186.64L245,178.96L269.5,170.67L294,160.88L343,135.9L367.5,126.88L392,116.6L416.5,109.26L441,99.65L465.5,88.75L490,76.51L514.5,63.19L539,61.33L563.5,60.97L588,64.59L612.5,72.49L637,73.24L661.5,67.98L686,59.95L710.5,55.04L735,48.44L759.5,43.91L784,35.14L808.5,33.19L833,31.62" style="vector-effect: none; fill: none; stroke: rgb(175, 100, 88); stroke-opacity: 1; stroke-width: 2px; opacity: 1;"/></g><g class="points"/><g class="text"/></g><g class="trace scatter trace6d7937" style="stroke-miterlimit: 2;"><g class="fills"><g><path class="js-fill" d="M0,230.59L24.5,225.19L49,214.72L73.5,206.97L98,202.77L122.5,201.23L147,198.6L171.5,194.3L196,189.08L220.5,184.7L245,176.98L269.5,168.66L294,158.8L343,133.7L367.5,124.63L392,114.32L416.5,106.96L441,97.29L465.5,86.31L490,73.99L514.5,60.44L539,58.52L563.5,58.13L588,61.76L612.5,69.68L637,70.36L661.5,65.13L686,56.96L710.5,52.27L735,45.6L759.5,41.06L784,32.24L808.5,30.28L833,28.61L833,30.19L808.5,31.78L784,33.72L759.5,42.49L735,46.99L710.5,53.59L686,58.25L661.5,66.4L637,71.64L612.5,70.94L588,63.06L563.5,59.51L539,59.91L514.5,61.8L490,75.3L465.5,87.59L441,98.54L416.5,108.19L392,115.54L367.5,125.84L343,134.87L294,159.88L269.5,169.69L245,177.98L220.5,185.66L196,189.99L171.5,195.16L147,199.42L122.5,202.04L98,203.55L73.5,207.69L49,215.41L24.5,225.86L0,231.27Z" style="fill: rgb(133, 92, 117); fill-opacity: 0.5; stroke-width: 0;"/></g></g><g class="errorbars"/><g class="lines"><path class="js-line" d="M0,231.27L24.5,225.86L49,215.41L73.5,207.69L98,203.55L122.5,202.04L147,199.42L171.5,195.16L196,189.99L220.5,185.66L245,177.98L269.5,169.69L294,159.88L343,134.87L367.5,125.84L392,115.54L416.5,108.19L441,98.54L465.5,87.59L490,75.3L514.5,61.8L539,59.91L563.5,59.51L588,63.06L612.5,70.94L637,71.64L661.5,66.4L686,58.25L710.5,53.59L735,46.99L759.5,42.49L784,33.72L808.5,31.78L833,30.19" style="vector-effect: none; fill: none; stroke: rgb(217, 175, 107); stroke-opacity: 1; stroke-width: 2px; opacity: 1;"/></g><g class="points"/><g class="text"/></g><g class="trace scatter trace29e484" style="stroke-miterlimit: 2;"><g class="fills"><g><path class="js-fill" d="M0,230.03L24.5,224.63L49,214.14L73.5,206.36L98,202.18L122.5,200.63L147,197.99L171.5,193.66L196,188.41L220.5,184.02L245,176.26L269.5,167.91L294,158.03L343,132.84L367.5,123.75L392,113.42L416.5,106.01L441,96.28L465.5,85.25L490,72.93L514.5,59.36L539,57.44L563.5,57.05L588,60.64L612.5,68.49L637,69.19L661.5,63.94L686,55.76L710.5,51.05L735,44.35L759.5,39.8L784,30.94L808.5,28.91L833,27.31L833,28.61L808.5,30.28L784,32.24L759.5,41.06L735,45.6L710.5,52.27L686,56.96L661.5,65.13L637,70.36L612.5,69.68L588,61.76L563.5,58.13L539,58.52L514.5,60.44L490,73.99L465.5,86.31L441,97.29L416.5,106.96L392,114.32L367.5,124.63L343,133.7L294,158.8L269.5,168.66L245,176.98L220.5,184.7L196,189.08L171.5,194.3L147,198.6L122.5,201.23L98,202.77L73.5,206.97L49,214.72L24.5,225.19L0,230.59Z" style="fill: rgb(124, 124, 124); fill-opacity: 0.5; stroke-width: 0;"/></g></g><g class="errorbars"/><g class="lines"><path class="js-line" d="M0,230.59L24.5,225.19L49,214.72L73.5,206.97L98,202.77L122.5,201.23L147,198.6L171.5,194.3L196,189.08L220.5,184.7L245,176.98L269.5,168.66L294,158.8L343,133.7L367.5,124.63L392,114.32L416.5,106.96L441,97.29L465.5,86.31L490,73.99L514.5,60.44L539,58.52L563.5,58.13L588,61.76L612.5,69.68L637,70.36L661.5,65.13L686,56.96L710.5,52.27L735,45.6L759.5,41.06L784,32.24L808.5,30.28L833,28.61" style="vector-effect: none; fill: none; stroke: rgb(133, 92, 117); stroke-opacity: 1; stroke-width: 2px; opacity: 1;"/></g><g class="points"/><g class="text"/></g><g class="trace scatter trace5f16da" style="stroke-miterlimit: 2;"><g class="fills"><g><path class="js-fill" d="M0,229.26L24.5,223.89L49,213.43L73.5,205.62L98,201.39L122.5,199.83L147,197.18L171.5,192.85L196,187.59L220.5,183.2L245,175.43L269.5,167.08L294,157.19L343,131.97L367.5,122.88L392,112.52L416.5,105.1L441,95.36L465.5,84.3L490,71.96L514.5,58.36L539,56.42L563.5,56L588,59.59L612.5,67.47L637,68.18L661.5,62.91L686,54.73L710.5,50.01L735,43.31L759.5,38.77L784,29.88L808.5,27.86L833,26.21L833,27.31L808.5,28.91L784,30.94L759.5,39.8L735,44.35L710.5,51.05L686,55.76L661.5,63.94L637,69.19L612.5,68.49L588,60.64L563.5,57.05L539,57.44L514.5,59.36L490,72.93L465.5,85.25L441,96.28L416.5,106.01L392,113.42L367.5,123.75L343,132.84L294,158.03L269.5,167.91L245,176.26L220.5,184.02L196,188.41L171.5,193.66L147,197.99L122.5,200.63L98,202.18L73.5,206.36L49,214.14L24.5,224.63L0,230.03Z" style="fill: rgb(140, 120, 93); fill-opacity: 0.5; stroke-width: 0;"/></g></g><g class="errorbars"/><g class="lines"><path class="js-line" d="M0,230.03L24.5,224.63L49,214.14L73.5,206.36L98,202.18L122.5,200.63L147,197.99L171.5,193.66L196,188.41L220.5,184.02L245,176.26L269.5,167.91L294,158.03L343,132.84L367.5,123.75L392,113.42L416.5,106.01L441,96.28L465.5,85.25L490,72.93L514.5,59.36L539,57.44L563.5,57.05L588,60.64L612.5,68.49L637,69.19L661.5,63.94L686,55.76L710.5,51.05L735,44.35L759.5,39.8L784,30.94L808.5,28.91L833,27.31" style="vector-effect: none; fill: none; stroke: rgb(124, 124, 124); stroke-opacity: 1; stroke-width: 2px; opacity: 1;"/></g><g class="points"/><g class="text"/></g><g class="trace scatter tracee26af6" style="stroke-miterlimit: 2;"><g class="fills"><g><path class="js-fill" d="M0,228.68L24.5,223.27L49,212.72L73.5,204.88L98,200.68L122.5,199.12L147,196.5L171.5,192.14L196,186.95L220.5,182.56L245,174.85L269.5,166.5L294,156.58L343,131.27L367.5,122.13L392,111.79L416.5,104.3L441,94.54L465.5,83.5L490,71.12L514.5,57.43L539,55.46L563.5,54.98L588,58.57L612.5,66.48L637,67.14L661.5,61.86L686,53.66L710.5,48.89L735,42.12L759.5,37.54L784,28.68L808.5,26.62L833,24.94L833,26.21L808.5,27.86L784,29.88L759.5,38.77L735,43.31L710.5,50.01L686,54.73L661.5,62.91L637,68.18L612.5,67.47L588,59.59L563.5,56L539,56.42L514.5,58.36L490,71.96L465.5,84.3L441,95.36L416.5,105.1L392,112.52L367.5,122.88L343,131.97L294,157.19L269.5,167.08L245,175.43L220.5,183.2L196,187.59L171.5,192.85L147,197.18L122.5,199.83L98,201.39L73.5,205.62L49,213.43L24.5,223.89L0,229.26Z" style="fill: rgb(160, 97, 119); fill-opacity: 0.5; stroke-width: 0;"/></g></g><g class="errorbars"/><g class="lines"><path class="js-line" d="M0,229.26L24.5,223.89L49,213.43L73.5,205.62L98,201.39L122.5,199.83L147,197.18L171.5,192.85L196,187.59L220.5,183.2L245,175.43L269.5,167.08L294,157.19L343,131.97L367.5,122.88L392,112.52L416.5,105.1L441,95.36L465.5,84.3L490,71.96L514.5,58.36L539,56.42L563.5,56L588,59.59L612.5,67.47L637,68.18L661.5,62.91L686,54.73L710.5,50.01L735,43.31L759.5,38.77L784,29.88L808.5,27.86L833,26.21" style="vector-effect: none; fill: none; stroke: rgb(140, 120, 93); stroke-opacity: 1; stroke-width: 2px; opacity: 1;"/></g><g class="points"/><g class="text"/></g><g class="trace scatter trace0178a5" style="stroke-miterlimit: 2;"><g class="fills"><g><path class="js-fill" d="M0,228.18L24.5,222.69L49,212.13L73.5,204.25L98,200.02L122.5,198.48L147,195.87L171.5,191.5L196,186.3L220.5,181.92L245,174.2L269.5,165.83L294,155.89L343,130.49L367.5,121.32L392,110.95L416.5,103.42L441,93.63L465.5,82.57L490,70.16L514.5,56.45L539,54.46L563.5,53.95L588,57.58L612.5,65.47L637,66.11L661.5,60.81L686,52.61L710.5,47.84L735,41.05L759.5,36.47L784,27.59L808.5,25.51L833,23.81L833,24.94L808.5,26.62L784,28.68L759.5,37.54L735,42.12L710.5,48.89L686,53.66L661.5,61.86L637,67.14L612.5,66.48L588,58.57L563.5,54.98L539,55.46L514.5,57.43L490,71.12L465.5,83.5L441,94.54L416.5,104.3L392,111.79L367.5,122.13L343,131.27L294,156.58L269.5,166.5L245,174.85L220.5,182.56L196,186.95L171.5,192.14L147,196.5L122.5,199.12L98,200.68L73.5,204.88L49,212.72L24.5,223.27L0,228.68Z" style="fill: rgb(156, 156, 94); fill-opacity: 0.5; stroke-width: 0;"/></g></g><g class="errorbars"/><g class="lines"><path class="js-line" d="M0,228.68L24.5,223.27L49,212.72L73.5,204.88L98,200.68L122.5,199.12L147,196.5L171.5,192.14L196,186.95L220.5,182.56L245,174.85L269.5,166.5L294,156.58L343,131.27L367.5,122.13L392,111.79L416.5,104.3L441,94.54L465.5,83.5L490,71.12L514.5,57.43L539,55.46L563.5,54.98L588,58.57L612.5,66.48L637,67.14L661.5,61.86L686,53.66L710.5,48.89L735,42.12L759.5,37.54L784,28.68L808.5,26.62L833,24.94" style="vector-effect: none; fill: none; stroke: rgb(160, 97, 119); stroke-opacity: 1; stroke-width: 2px; opacity: 1;"/></g><g class="points"/><g class="text"/></g><g class="trace scatter trace8668df" style="stroke-miterlimit: 2;"><g class="fills"><g><path class="js-fill" d="M0,227.53L24.5,222.1L49,211.54L73.5,203.66L98,199.45L122.5,197.9L147,195.31L171.5,190.94L196,185.75L220.5,181.37L245,173.66L269.5,165.29L294,155.31L343,129.9L367.5,120.7L392,110.32L416.5,102.78L441,92.96L465.5,81.84L490,69.33L514.5,55.59L539,53.56L563.5,53.02L588,56.61L612.5,64.5L637,65.15L661.5,59.86L686,51.64L710.5,46.86L735,40.09L759.5,35.55L784,26.68L808.5,24.59L833,22.86L833,23.81L808.5,25.51L784,27.59L759.5,36.47L735,41.05L710.5,47.84L686,52.61L661.5,60.81L637,66.11L612.5,65.47L588,57.58L563.5,53.95L539,54.46L514.5,56.45L490,70.16L465.5,82.57L441,93.63L416.5,103.42L392,110.95L367.5,121.32L343,130.49L294,155.89L269.5,165.83L245,174.2L220.5,181.92L196,186.3L171.5,191.5L147,195.87L122.5,198.48L98,200.02L73.5,204.25L49,212.13L24.5,222.69L0,228.18Z" style="fill: rgb(104, 133, 92); fill-opacity: 0.5; stroke-width: 0;"/></g></g><g class="errorbars"/><g class="lines"><path class="js-line" d="M0,228.18L24.5,222.69L49,212.13L73.5,204.25L98,200.02L122.5,198.48L147,195.87L171.5,191.5L196,186.3L220.5,181.92L245,174.2L269.5,165.83L294,155.89L343,130.49L367.5,121.32L392,110.95L416.5,103.42L441,93.63L465.5,82.57L490,70.16L514.5,56.45L539,54.46L563.5,53.95L588,57.58L612.5,65.47L637,66.11L661.5,60.81L686,52.61L710.5,47.84L735,41.05L759.5,36.47L784,27.59L808.5,25.51L833,23.81" style="vector-effect: none; fill: none; stroke: rgb(156, 156, 94); stroke-opacity: 1; stroke-width: 2px; opacity: 1;"/></g><g class="points"/><g class="text"/></g><g class="trace scatter trace6a0cf6" style="stroke-miterlimit: 2;"><g class="fills"><g><path class="js-fill" d="M0,227.05L24.5,221.6L49,211.02L73.5,203.15L98,198.92L122.5,197.35L147,194.74L171.5,190.36L196,185.16L220.5,180.8L245,173.08L269.5,164.69L294,154.7L343,129.24L367.5,120.03L392,109.64L416.5,102.08L441,92.25L465.5,81.12L490,68.61L514.5,54.85L539,52.8L563.5,52.23L588,55.83L612.5,63.75L637,64.4L661.5,59.08L686,50.86L710.5,46.07L735,39.24L759.5,34.7L784,25.84L808.5,23.75L833,21.99L833,22.86L808.5,24.59L784,26.68L759.5,35.55L735,40.09L710.5,46.86L686,51.64L661.5,59.86L637,65.15L612.5,64.5L588,56.61L563.5,53.02L539,53.56L514.5,55.59L490,69.33L465.5,81.84L441,92.96L416.5,102.78L392,110.32L367.5,120.7L343,129.9L294,155.31L269.5,165.29L245,173.66L220.5,181.37L196,185.75L171.5,190.94L147,195.31L122.5,197.9L98,199.45L73.5,203.66L49,211.54L24.5,222.1L0,227.53Z" style="fill: rgb(98, 83, 119); fill-opacity: 0.5; stroke-width: 0;"/></g></g><g class="errorbars"/><g class="lines"><path class="js-line" d="M0,227.53L24.5,222.1L49,211.54L73.5,203.66L98,199.45L122.5,197.9L147,195.31L171.5,190.94L196,185.75L220.5,181.37L245,173.66L269.5,165.29L294,155.31L343,129.9L367.5,120.7L392,110.32L416.5,102.78L441,92.96L465.5,81.84L490,69.33L514.5,55.59L539,53.56L563.5,53.02L588,56.61L612.5,64.5L637,65.15L661.5,59.86L686,51.64L710.5,46.86L735,40.09L759.5,35.55L784,26.68L808.5,24.59L833,22.86" style="vector-effect: none; fill: none; stroke: rgb(104, 133, 92); stroke-opacity: 1; stroke-width: 2px; opacity: 1;"/></g><g class="points"/><g class="text"/></g><g class="trace scatter trace02bd12" style="stroke-miterlimit: 2;"><g class="fills"><g><path class="js-fill" d="M0,226.55L24.5,221.12L49,210.5L73.5,202.62L98,198.41L122.5,196.83L147,194.22L171.5,189.84L196,184.64L220.5,180.28L245,172.55L269.5,164.16L294,154.15L343,128.68L367.5,119.45L392,109.06L416.5,101.48L441,91.61L465.5,80.47L490,67.99L514.5,54.21L539,52.14L563.5,51.53L588,55.11L612.5,63.01L637,63.62L661.5,58.26L686,49.98L710.5,45.16L735,38.31L759.5,33.77L784,24.89L808.5,22.78L833,21L833,21.99L808.5,23.75L784,25.84L759.5,34.7L735,39.24L710.5,46.07L686,50.86L661.5,59.08L637,64.4L612.5,63.75L588,55.83L563.5,52.23L539,52.8L514.5,54.85L490,68.61L465.5,81.12L441,92.25L416.5,102.08L392,109.64L367.5,120.03L343,129.24L294,154.7L269.5,164.69L245,173.08L220.5,180.8L196,185.16L171.5,190.36L147,194.74L122.5,197.35L98,198.92L73.5,203.15L49,211.02L24.5,221.6L0,227.05Z" style="fill: rgb(82, 106, 131); fill-opacity: 0.5; stroke-width: 0;"/></g></g><g class="errorbars"/><g class="lines"><path class="js-line" d="M0,227.05L24.5,221.6L49,211.02L73.5,203.15L98,198.92L122.5,197.35L147,194.74L171.5,190.36L196,185.16L220.5,180.8L245,173.08L269.5,164.69L294,154.7L343,129.24L367.5,120.03L392,109.64L416.5,102.08L441,92.25L465.5,81.12L490,68.61L514.5,54.85L539,52.8L563.5,52.23L588,55.83L612.5,63.75L637,64.4L661.5,59.08L686,50.86L710.5,46.07L735,39.24L759.5,34.7L784,25.84L808.5,23.75L833,21.99" style="vector-effect: none; fill: none; stroke: rgb(98, 83, 119); stroke-opacity: 1; stroke-width: 2px; opacity: 1;"/></g><g class="points"/><g class="text"/></g><g class="trace scatter trace268407" style="stroke-miterlimit: 2;"><g class="fills"/><g class="errorbars"/><g class="lines"><path class="js-line" d="M0,226.55L24.5,221.12L49,210.5L73.5,202.62L98,198.41L122.5,196.83L147,194.22L171.5,189.84L196,184.64L220.5,180.28L245,172.55L269.5,164.16L294,154.15L343,128.68L367.5,119.45L392,109.06L416.5,101.48L441,91.61L465.5,80.47L490,67.99L514.5,54.21L539,52.14L563.5,51.53L588,55.11L612.5,63.01L637,63.62L661.5,58.26L686,49.98L710.5,45.16L735,38.31L759.5,33.77L784,24.89L808.5,22.78L833,21" style="vector-effect: none; fill: none; stroke: rgb(82, 106, 131); stroke-opacity: 1; stroke-width: 2px; opacity: 1;"/></g><g class="points"/><g class="text"/></g></g></g></g><path class="xlines-above crisp" d="M0,0" style="fill: none;"/><path class="ylines-above crisp" d="M0,0" style="fill: none;"/><g class="overlines-above"/><g class="xaxislayer-above"><g class="xtick"><text text-anchor="middle" x="0" y="533" transform="translate(160.5,0)" style="font-family: 'Open Sans', verdana, arial, sans-serif; font-size: 12px; fill: rgb(242, 245, 250); fill-opacity: 1; white-space: pre; opacity: 1;">1990</text></g><g class="xtick"><text text-anchor="middle" x="0" y="533" style="font-family: 'Open Sans', verdana, arial, sans-serif; font-size: 12px; fill: rgb(242, 245, 250); fill-opacity: 1; white-space: pre; opacity: 1;" transform="translate(283,0)">1995</text></g><g class="xtick"><text text-anchor="middle" x="0" y="533" style="font-family: 'Open Sans', verdana, arial, sans-serif; font-size: 12px; fill: rgb(242, 245, 250); fill-opacity: 1; white-space: pre; opacity: 1;" transform="translate(405.5,0)">2000</text></g><g class="xtick"><text text-anchor="middle" x="0" y="533" style="font-family: 'Open Sans', verdana, arial, sans-serif; font-size: 12px; fill: rgb(242, 245, 250); fill-opacity: 1; white-space: pre; opacity: 1;" transform="translate(528,0)">2005</text></g><g class="xtick"><text text-anchor="middle" x="0" y="533" style="font-family: 'Open Sans', verdana, arial, sans-serif; font-size: 12px; fill: rgb(242, 245, 250); fill-opacity: 1; white-space: pre; opacity: 1;" transform="translate(650.5,0)">2010</text></g><g class="xtick"><text text-anchor="middle" x="0" y="533" style="font-family: 'Open Sans', verdana, arial, sans-serif; font-size: 12px; fill: rgb(242, 245, 250); fill-opacity: 1; white-space: pre; opacity: 1;" transform="translate(773,0)">2015</text></g><g class="xtick"><text text-anchor="middle" x="0" y="533" style="font-family: 'Open Sans', verdana, arial, sans-serif; font-size: 12px; fill: rgb(242, 245, 250); fill-opacity: 1; white-space: pre; opacity: 1;" transform="translate(895.5,0)">2020</text></g></g><g class="yaxislayer-above"><g class="ytick"><text text-anchor="end" x="86" y="4.199999999999999" transform="translate(0,520)" style="font-family: 'Open Sans', verdana, arial, sans-serif; font-size: 12px; fill: rgb(242, 245, 250); fill-opacity: 1; white-space: pre; opacity: 1;">$0</text></g><g class="ytick"><text text-anchor="end" x="86" y="4.199999999999999" style="font-family: 'Open Sans', verdana, arial, sans-serif; font-size: 12px; fill: rgb(242, 245, 250); fill-opacity: 1; white-space: pre; opacity: 1;" transform="translate(0,471.18)">$100</text></g><g class="ytick"><text text-anchor="end" x="86" y="4.199999999999999" style="font-family: 'Open Sans', verdana, arial, sans-serif; font-size: 12px; fill: rgb(242, 245, 250); fill-opacity: 1; white-space: pre; opacity: 1;" transform="translate(0,422.35)">$200</text></g><g class="ytick"><text text-anchor="end" x="86" y="4.199999999999999" style="font-family: 'Open Sans', verdana, arial, sans-serif; font-size: 12px; fill: rgb(242, 245, 250); fill-opacity: 1; white-space: pre; opacity: 1;" transform="translate(0,373.53)">$300</text></g><g class="ytick"><text text-anchor="end" x="86" y="4.199999999999999" style="font-family: 'Open Sans', verdana, arial, sans-serif; font-size: 12px; fill: rgb(242, 245, 250); fill-opacity: 1; white-space: pre; opacity: 1;" transform="translate(0,324.71000000000004)">$400</text></g><g class="ytick"><text text-anchor="end" x="86" y="4.199999999999999" style="font-family: 'Open Sans', verdana, arial, sans-serif; font-size: 12px; fill: rgb(242, 245, 250); fill-opacity: 1; white-space: pre; opacity: 1;" transform="translate(0,275.88)">$500</text></g><g class="ytick"><text text-anchor="end" x="86" y="4.199999999999999" style="font-family: 'Open Sans', verdana, arial, sans-serif; font-size: 12px; fill: rgb(242, 245, 250); fill-opacity: 1; white-space: pre; opacity: 1;" transform="translate(0,227.06)">$600</text></g><g class="ytick"><text text-anchor="end" x="86" y="4.199999999999999" style="font-family: 'Open Sans', verdana, arial, sans-serif; font-size: 12px; fill: rgb(242, 245, 250); fill-opacity: 1; white-space: pre; opacity: 1;" transform="translate(0,178.24)">$700</text></g><g class="ytick"><text text-anchor="end" x="86" y="4.199999999999999" style="font-family: 'Open Sans', verdana, arial, sans-serif; font-size: 12px; fill: rgb(242, 245, 250); fill-opacity: 1; white-space: pre; opacity: 1;" transform="translate(0,129.41)">$800</text></g></g><g class="overaxes-above"/></g></g><g class="polarlayer"/><g class="smithlayer"/><g class="ternarylayer"/><g class="geolayer"/><g class="funnelarealayer"/><g class="pielayer"/><g class="iciclelayer"/><g class="treemaplayer"/><g class="sunburstlayer"/><g class="glimages"/><defs id="topdefs-b8fac5"><g class="clips"/></defs><g class="layer-above"><g class="imagelayer"/><g class="shapelayer"/></g><g class="infolayer"><g class="g-gtitle"><text class="gtitle" x="50" y="50" text-anchor="start" dy="0em" style="opacity: 1; font-family: 'Open Sans', verdana, arial, sans-serif; font-size: 17px; fill: rgb(242, 245, 250); fill-opacity: 1; white-space: pre;"><tspan class="line" dy="0em" x="50" y="50">US Spending on Public Elementary &amp; Secondary Education</tspan><tspan class="line" dy="1.3em" x="50" y="50"><tspan style="font-size:70%" dy="-0.6em">Real spending on public education has doubled in the last 40 years.</tspan><tspan dy="0.42em"></tspan></tspan></text></g><g class="g-xtitle"/><g class="g-ytitle"><text class="ytitle" transform="rotate(-90,17.884375000000006,310)" x="17.884375000000006" y="310" text-anchor="middle" style="opacity: 1; font-family: 'Open Sans', verdana, arial, sans-serif; font-size: 14px; fill: rgb(242, 245, 250); fill-opacity: 1; white-space: pre;"><tspan class="line" dy="0em" x="17.884375000000006" y="310">US Education Spending</tspan><tspan class="line" dy="1.3em" x="17.884375000000006" y="310"><tspan style="font-size:70%" dy="-0.6em">(Billions USD, 2024 Dollars)</tspan><tspan dy="0.42em"></tspan></tspan></text></g><g class="annotation" data-index="0" style="opacity: 0.7;"><g class="annotation-text-g" transform="rotate(0,771.8100000000001,568.5)"><g class="cursor-pointer" transform="translate(565,554)"><rect class="bg" x="0.5" y="0.5" width="412" height="28" style="stroke-width: 1px; stroke: rgb(0, 0, 0); stroke-opacity: 0; fill: rgb(0, 0, 0); fill-opacity: 0;"/><text class="annotation-text" text-anchor="end" x="411.328125" y="12" style="font-family: 'Open Sans', verdana, arial, sans-serif; font-size: 10px; fill: rgb(128, 128, 128); fill-opacity: 1; white-space: pre;"><tspan class="line" dy="0em" x="411.328125" y="12">Chart by Dominic Tarro |  @dominictarro</tspan><tspan class="line" dy="1.3em" x="411.328125" y="12">Source: CCD National Public Education Financial Survey (1986-2021), Series TE5</tspan></text></g></g></g><g class="annotation" data-index="1" style="opacity: 0.7;"><g class="annotation-text-g" transform="rotate(0,206.86,575)"><g class="cursor-pointer" transform="translate(20,567)"><rect class="bg" x="0.5" y="0.5" width="372" height="15" style="stroke-width: 1px; stroke: rgb(0, 0, 0); stroke-opacity: 0; fill: rgb(0, 0, 0); fill-opacity: 0;"/><text class="annotation-text" text-anchor="start" x="2" y="12" style="font-family: 'Open Sans', verdana, arial, sans-serif; font-size: 10px; fill: rgb(128, 128, 128); fill-opacity: 1; white-space: pre;">Note: Dollar adjustment was made using each school year's ending year.</text></g></g></g><g class="annotation" data-index="2" style="opacity: 0.5;"><g class="annotation-text-g" transform="rotate(0,867.4168999999999,494.67)"><g class="cursor-pointer" transform="translate(815,483)"><rect class="bg" x="0.5" y="0.5" width="103" height="23" style="stroke-width: 1px; stroke: rgb(0, 0, 0); stroke-opacity: 0; fill: rgb(0, 0, 0); fill-opacity: 0;"/><text class="annotation-text" text-anchor="middle" x="52.15625" y="18" style="font-family: 'Open Sans', verdana, arial, sans-serif; font-size: 16px; fill: rgb(255, 255, 255); fill-opacity: 1; white-space: pre;">CALIFORNIA</text></g></g></g><g class="annotation" data-index="3" style="opacity: 0.5;"><g class="annotation-text-g" transform="rotate(0,875.9168999999999,450.54)"><g class="cursor-pointer" transform="translate(832,440)"><rect class="bg" x="0.5" y="0.5" width="86" height="21" style="stroke-width: 1px; stroke: rgb(0, 0, 0); stroke-opacity: 0; fill: rgb(0, 0, 0); fill-opacity: 0;"/><text class="annotation-text" text-anchor="middle" x="43.34375" y="17" style="font-family: 'Open Sans', verdana, arial, sans-serif; font-size: 15px; fill: rgb(255, 255, 255); fill-opacity: 1; white-space: pre;">NEW YORK</text></g></g></g><g class="annotation" data-index="4" style="opacity: 0.5;"><g class="annotation-text-g" transform="rotate(0,894.4168999999999,414.92)"><g class="cursor-pointer" transform="translate(869,404)"><rect class="bg" x="0.5" y="0.5" width="49" height="20" style="stroke-width: 1px; stroke: rgb(0, 0, 0); stroke-opacity: 0; fill: rgb(0, 0, 0); fill-opacity: 0;"/><text class="annotation-text" text-anchor="middle" x="25.109375" y="16" style="font-family: 'Open Sans', verdana, arial, sans-serif; font-size: 14px; fill: rgb(255, 255, 255); fill-opacity: 1; white-space: pre;">TEXAS</text></g></g></g><g class="annotation" data-index="5" style="opacity: 0.5;"><g class="annotation-text-g" transform="rotate(0,887.4168999999999,388.25)"><g class="cursor-pointer" transform="translate(855,378)"><rect class="bg" x="0.5" y="0.5" width="63" height="19" style="stroke-width: 1px; stroke: rgb(0, 0, 0); stroke-opacity: 0; fill: rgb(0, 0, 0); fill-opacity: 0;"/><text class="annotation-text" text-anchor="middle" x="31.875" y="15" style="font-family: 'Open Sans', verdana, arial, sans-serif; font-size: 13px; fill: rgb(255, 255, 255); fill-opacity: 1; white-space: pre;">ILLINOIS</text></g></g></g></g></svg>